Comme-Extra-Bold.ufo
<glyph name="numbersign" format="1">
  <advance width="1098"/>
  <unicode hex="0023"/>
  <outline>
    <contour>
      <point x="149" y="6" type="line"/>
      <point x="338" y="6" type="line"/>
      <point x="412" y="439" type="line"/>
      <point x="611" y="439" type="line"/>
      <point x="536" y="6" type="line"/>
      <point x="728" y="6" type="line"/>
      <point x="806" y="439" type="line"/>
      <point x="950" y="439" type="line"/>
      <point x="967" y="580" type="line"/>
      <point x="831" y="580" type="line"/>
      <point x="886" y="935" type="line"/>
      <point x="1025" y="935" type="line"/>
      <point x="1046" y="1082" type="line"/>
      <point x="911" y="1082" type="line"/>
      <point x="971" y="1443" type="line"/>
      <point x="775" y="1443" type="line"/>
      <point x="718" y="1082" type="line"/>
      <point x="519" y="1082" type="line"/>
      <point x="580" y="1443" type="line"/>
      <point x="388" y="1443" type="line"/>
      <point x="330" y="1082" type="line"/>
      <point x="136" y="1082" type="line"/>
      <point x="116" y="935" type="line"/>
      <point x="307" y="935" type="line"/>
      <point x="248" y="580" type="line"/>
      <point x="84" y="580" type="line"/>
      <point x="63" y="439" type="line"/>
      <point x="224" y="439" type="line"/>
    </contour>
    <contour>
      <point x="440" y="580" type="line"/>
      <point x="496" y="935" type="line"/>
      <point x="692" y="935" type="line"/>
      <point x="634" y="580" type="line"/>
    </contour>
  </outline>
</glyph>
<glyph name="percent" format="1">
  <advance width="2377"/>
  <unicode hex="0025"/>
  <outline>
    <contour>
      <point x="569" y="937" type="curve" smooth="yes"/>
      <point x="462" y="937"/>
      <point x="367" y="1030"/>
      <point x="367" y="1149" type="curve" smooth="yes"/>
      <point x="367" y="1265"/>
      <point x="462" y="1355"/>
      <point x="569" y="1355" type="curve" smooth="yes"/>
      <point x="672" y="1355"/>
      <point x="762" y="1269"/>
      <point x="762" y="1149" type="curve" smooth="yes"/>
      <point x="762" y="1030"/>
      <point x="673" y="937"/>
    </contour>
    <contour>
      <point x="563" y="721" type="curve" smooth="yes"/>
      <point x="817" y="721"/>
      <point x="1013" y="907"/>
      <point x="1013" y="1143" type="curve" smooth="yes"/>
      <point x="1013" y="1382"/>
      <point x="820" y="1563"/>
      <point x="563" y="1563" type="curve" smooth="yes"/>
      <point x="309" y="1563"/>
      <point x="128" y="1379"/>
      <point x="128" y="1143" type="curve" smooth="yes"/>
      <point x="128" y="907"/>
      <point x="305" y="721"/>
    </contour>
    <contour>
      <point x="653" y="0" type="line"/>
      <point x="926" y="0" type="line"/>
      <point x="1780" y="1543" type="line"/>
      <point x="1513" y="1543" type="line"/>
    </contour>
    <contour>
      <point x="1880" y="172" type="curve" smooth="yes"/>
      <point x="1773" y="172"/>
      <point x="1679" y="265"/>
      <point x="1679" y="382" type="curve" smooth="yes"/>
      <point x="1679" y="498"/>
      <point x="1773" y="589"/>
      <point x="1880" y="589" type="curve" smooth="yes"/>
      <point x="1983" y="589"/>
      <point x="2074" y="502"/>
      <point x="2074" y="382" type="curve" smooth="yes"/>
      <point x="2074" y="266"/>
      <point x="1984" y="172"/>
    </contour>
    <contour>
      <point x="1874" y="-46" type="curve" smooth="yes"/>
      <point x="2128" y="-46"/>
      <point x="2324" y="140"/>
      <point x="2324" y="379" type="curve" smooth="yes"/>
      <point x="2324" y="618"/>
      <point x="2131" y="794"/>
      <point x="1874" y="794" type="curve" smooth="yes"/>
      <point x="1620" y="794"/>
      <point x="1426" y="612"/>
      <point x="1426" y="379" type="curve" smooth="yes"/>
      <point x="1426" y="140"/>
      <point x="1616" y="-46"/>
    </contour>
  </outline>
</glyph>
<glyph name="ampersand" format="1">
  <advance width="1420"/>
  <unicode hex="0026"/>
  <outline>
    <contour>
      <point x="1183" y="-41" type="line"/>
      <point x="1391" y="121" type="line"/>
      <point x="1221" y="316" type="line"/>
      <point x="1303" y="421"/>
      <point x="1373" y="539"/>
      <point x="1441" y="649" type="curve"/>
      <point x="1248" y="786" type="line"/>
      <point x="1196" y="687"/>
      <point x="1134" y="585"/>
      <point x="1065" y="496" type="curve"/>
      <point x="750" y="857" type="line"/>
      <point x="913" y="942"/>
      <point x="1064" y="1112"/>
      <point x="1064" y="1242" type="curve" smooth="yes"/>
      <point x="1064" y="1473"/>
      <point x="838" y="1554"/>
      <point x="663" y="1554" type="curve" smooth="yes"/>
      <point x="468" y="1554"/>
      <point x="246" y="1445"/>
      <point x="246" y="1191" type="curve" smooth="yes"/>
      <point x="246" y="1051"/>
      <point x="382" y="909"/>
      <point x="408" y="885" type="curve"/>
      <point x="305" y="803"/>
      <point x="95" y="671"/>
      <point x="95" y="477" type="curve" smooth="yes"/>
      <point x="95" y="121"/>
      <point x="392" y="-15"/>
      <point x="627" y="-15" type="curve" smooth="yes"/>
      <point x="794" y="-15"/>
      <point x="926" y="40"/>
      <point x="1037" y="127" type="curve"/>
    </contour>
    <contour>
      <point x="626" y="216" type="curve" smooth="yes"/>
      <point x="497" y="216"/>
      <point x="389" y="284"/>
      <point x="389" y="438" type="curve" smooth="yes"/>
      <point x="389" y="564"/>
      <point x="484" y="638"/>
      <point x="551" y="691" type="curve"/>
      <point x="880" y="309" type="line"/>
      <point x="802" y="251"/>
      <point x="717" y="216"/>
    </contour>
    <contour>
      <point x="633" y="1009" type="curve"/>
      <point x="560" y="1095"/>
      <point x="543" y="1142"/>
      <point x="543" y="1231" type="curve" smooth="yes"/>
      <point x="543" y="1304"/>
      <point x="595" y="1339"/>
      <point x="657" y="1340" type="curve" smooth="yes"/>
      <point x="725" y="1340"/>
      <point x="785" y="1320"/>
      <point x="785" y="1237" type="curve" smooth="yes"/>
      <point x="785" y="1170"/>
      <point x="704" y="1044"/>
    </contour>
  </outline>
</glyph>
<glyph name="quotesingle" format="1">
  <advance width="688"/>
  <unicode hex="0027"/>
  <outline>
    <contour>
      <point x="258" y="894" type="line"/>
      <point x="430" y="894" type="line"/>
      <point x="482" y="1567" type="line"/>
      <point x="152" y="1567" type="line"/>
    </contour>
  </outline>
</glyph>
<glyph name="asterisk" format="1">
  <advance width="1072"/>
  <unicode hex="002A"/>
  <outline>
    <contour>
      <point x="374" y="449" type="line"/>
      <point x="538" y="781" type="line"/>
      <point x="708" y="446" type="line"/>
      <point x="710" y="447"/>
      <point x="953" y="587"/>
      <point x="956" y="589" type="curve"/>
      <point x="957" y="588"/>
      <point x="757" y="855"/>
      <point x="714" y="911" type="curve"/>
      <point x="1064" y="993" type="line"/>
      <point x="983" y="1269" type="line"/>
      <point x="643" y="1120" type="line"/>
      <point x="674" y="1536" type="line"/>
      <point x="401" y="1536" type="line"/>
      <point x="435" y="1120" type="line"/>
      <point x="97" y="1269" type="line"/>
      <point x="18" y="993" type="line"/>
      <point x="363" y="911" type="line"/>
      <point x="119" y="589" type="line"/>
    </contour>
  </outline>
</glyph>
<glyph name="plus" format="1">
  <advance width="1202"/>
  <unicode hex="002B"/>
  <outline>
    <contour>
      <point x="468" y="240" type="line"/>
      <point x="734" y="240" type="line"/>
      <point x="734" y="618" type="line"/>
      <point x="1104" y="618" type="line"/>
      <point x="1104" y="879" type="line"/>
      <point x="735" y="879" type="line"/>
      <point x="735" y="1249" type="line"/>
      <point x="468" y="1249" type="line"/>
      <point x="468" y="879" type="line"/>
      <point x="100" y="879" type="line"/>
      <point x="100" y="618" type="line"/>
      <point x="468" y="618" type="line"/>
    </contour>
  </outline>
</glyph>
<glyph name="period" format="1">
  <advance width="759"/>
  <unicode hex="002E"/>
  <outline>
    <contour>
      <point x="370" y="-5" type="curve" smooth="yes"/>
      <point x="471" y="-5"/>
      <point x="558" y="49"/>
      <point x="558" y="166" type="curve" smooth="yes"/>
      <point x="558" y="288"/>
      <point x="471" y="344"/>
      <point x="370" y="344" type="curve" smooth="yes"/>
      <point x="273" y="344"/>
      <point x="184" y="288"/>
      <point x="184" y="166" type="curve" smooth="yes"/>
      <point x="184" y="46"/>
      <point x="275" y="-5"/>
    </contour>
  </outline>
</glyph>
<glyph name="two" format="1">
  <advance width="1408"/>
  <unicode hex="0032"/>
  <outline>
    <contour>
      <point x="258" y="0" type="line"/>
      <point x="1214" y="0" type="line"/>
      <point x="1224" y="274" type="line"/>
      <point x="672" y="274" type="line"/>
      <point x="960" y="546" type="line" smooth="yes"/>
      <point x="1162" y="735"/>
      <point x="1232" y="883"/>
      <point x="1232" y="1002" type="curve" smooth="yes"/>
      <point x="1232" y="1211"/>
      <point x="1128" y="1476"/>
      <point x="691" y="1476" type="curve" smooth="yes"/>
      <point x="413" y="1476"/>
      <point x="216" y="1319"/>
      <point x="104" y="1182" type="curve"/>
      <point x="291" y="987" type="line"/>
      <point x="319" y="987" type="line"/>
      <point x="410" y="1098"/>
      <point x="552" y="1179"/>
      <point x="688" y="1179" type="curve" smooth="yes"/>
      <point x="789" y="1179"/>
      <point x="852" y="1106"/>
      <point x="852" y="1012" type="curve" smooth="yes"/>
      <point x="852" y="948"/>
      <point x="815" y="871"/>
      <point x="736" y="795" type="curve" smooth="yes"/>
      <point x="194" y="261" type="line"/>
    </contour>
  </outline>
</glyph>
<glyph name="four" format="1">
  <advance width="1408"/>
  <unicode hex="0034"/>
  <outline>
    <contour>
      <point x="679" y="0" type="line"/>
      <point x="1108" y="0" type="line"/>
      <point x="1108" y="313" type="line"/>
      <point x="1319" y="313" type="line"/>
      <point x="1335" y="574" type="line"/>
      <point x="1108" y="574" type="line"/>
      <point x="1108" y="1456" type="line"/>
      <point x="605" y="1456" type="line"/>
      <point x="82" y="549" type="line"/>
      <point x="94" y="313" type="line"/>
      <point x="679" y="313" type="line"/>
    </contour>
    <contour>
      <point x="382" y="567" type="line"/>
      <point x="678" y="1083" type="line"/>
      <point x="678" y="567" type="line"/>
    </contour>
  </outline>
</glyph>
<glyph name="six" format="1">
  <advance width="1408"/>
  <unicode hex="0036"/>
  <outline>
    <contour>
      <point x="694" y="-20" type="curve" smooth="yes"/>
      <point x="1057" y="-20"/>
      <point x="1271" y="167"/>
      <point x="1271" y="449" type="curve" smooth="yes"/>
      <point x="1271" y="778"/>
      <point x="1026" y="900"/>
      <point x="824" y="900" type="curve" smooth="yes"/>
      <point x="771" y="900"/>
      <point x="720" y="886"/>
      <point x="678" y="871" type="curve"/>
      <point x="831" y="1046"/>
      <point x="969" y="1237"/>
      <point x="1114" y="1422" type="curve"/>
      <point x="1114" y="1456" type="line"/>
      <point x="662" y="1456" type="line"/>
      <point x="259" y="868" type="line" smooth="yes"/>
      <point x="178" y="748"/>
      <point x="120" y="635"/>
      <point x="120" y="472" type="curve" smooth="yes"/>
      <point x="120" y="178"/>
      <point x="331" y="-20"/>
    </contour>
    <contour>
      <point x="696" y="255" type="curve" smooth="yes"/>
      <point x="596" y="255"/>
      <point x="530" y="331"/>
      <point x="530" y="463" type="curve" smooth="yes"/>
      <point x="530" y="594"/>
      <point x="586" y="686"/>
      <point x="695" y="686" type="curve" smooth="yes"/>
      <point x="796" y="686"/>
      <point x="861" y="602"/>
      <point x="861" y="462" type="curve" smooth="yes"/>
      <point x="861" y="331"/>
      <point x="795" y="255"/>
    </contour>
  </outline>
</glyph>
<glyph name="eight" format="1">
  <advance width="1408"/>
  <unicode hex="0038"/>
  <outline>
    <contour>
      <point x="710" y="-20" type="curve" smooth="yes"/>
      <point x="1076" y="-20"/>
      <point x="1274" y="137"/>
      <point x="1274" y="397" type="curve" smooth="yes"/>
      <point x="1274" y="593"/>
      <point x="1196" y="728"/>
      <point x="1058" y="782" type="curve"/>
      <point x="1181" y="832"/>
      <point x="1251" y="938"/>
      <point x="1251" y="1110" type="curve" smooth="yes"/>
      <point x="1251" y="1350"/>
      <point x="1018" y="1476"/>
      <point x="706" y="1476" type="curve" smooth="yes"/>
      <point x="396" y="1476"/>
      <point x="160" y="1350"/>
      <point x="160" y="1110" type="curve" smooth="yes"/>
      <point x="160" y="931"/>
      <point x="237" y="828"/>
      <point x="367" y="782" type="curve"/>
      <point x="224" y="731"/>
      <point x="134" y="586"/>
      <point x="134" y="397" type="curve" smooth="yes"/>
      <point x="134" y="137"/>
      <point x="339" y="-20"/>
    </contour>
    <contour>
      <point x="710" y="228" type="curve" smooth="yes"/>
      <point x="611" y="228"/>
      <point x="569" y="285"/>
      <point x="569" y="410" type="curve" smooth="yes"/>
      <point x="569" y="542"/>
      <point x="624" y="650"/>
      <point x="710" y="684" type="curve"/>
      <point x="793" y="650"/>
      <point x="845" y="542"/>
      <point x="845" y="411" type="curve" smooth="yes"/>
      <point x="845" y="286"/>
      <point x="809" y="228"/>
    </contour>
    <contour>
      <point x="710" y="842" type="curve"/>
      <point x="620" y="888"/>
      <point x="560" y="984"/>
      <point x="560" y="1085" type="curve" smooth="yes"/>
      <point x="560" y="1176"/>
      <point x="619" y="1233"/>
      <point x="710" y="1233" type="curve" smooth="yes"/>
      <point x="799" y="1233"/>
      <point x="851" y="1177"/>
      <point x="851" y="1085" type="curve" smooth="yes"/>
      <point x="851" y="985"/>
      <point x="798" y="888"/>
    </contour>
  </outline>
</glyph>
<glyph name="nine" format="1">
  <advance width="1408"/>
  <unicode hex="0039"/>
  <outline>
    <contour>
      <point x="319" y="0" type="line"/>
      <point x="752" y="0" type="line"/>
      <point x="1154" y="587" type="line"/>
      <point x="1237" y="708"/>
      <point x="1292" y="821"/>
      <point x="1292" y="985" type="curve" smooth="yes"/>
      <point x="1292" y="1278"/>
      <point x="1081" y="1476"/>
      <point x="716" y="1476" type="curve" smooth="yes"/>
      <point x="357" y="1476"/>
      <point x="142" y="1289"/>
      <point x="142" y="1008" type="curve" smooth="yes"/>
      <point x="142" y="679"/>
      <point x="389" y="556"/>
      <point x="586" y="556" type="curve" smooth="yes"/>
      <point x="640" y="556"/>
      <point x="692" y="571"/>
      <point x="733" y="587" type="curve"/>
      <point x="732" y="585"/>
      <point x="599" y="425"/>
      <point x="598" y="423" type="curve" smooth="yes"/>
      <point x="593" y="417"/>
      <point x="324" y="40"/>
      <point x="319" y="34" type="curve"/>
    </contour>
    <contour>
      <point x="717" y="770" type="curve" smooth="yes"/>
      <point x="617" y="770"/>
      <point x="551" y="854"/>
      <point x="551" y="993" type="curve" smooth="yes"/>
      <point x="551" y="1125"/>
      <point x="615" y="1201"/>
      <point x="714" y="1201" type="curve" smooth="yes"/>
      <point x="814" y="1201"/>
      <point x="879" y="1125"/>
      <point x="879" y="993" type="curve" smooth="yes"/>
      <point x="879" y="863"/>
      <point x="824" y="770"/>
    </contour>
  </outline>
</glyph>
<glyph name="greater" format="1">
  <advance width="1107"/>
  <unicode hex="003E"/>
  <outline>
    <contour>
      <point x="81" y="199" type="line"/>
      <point x="1031" y="667" type="line"/>
      <point x="1031" y="818" type="line"/>
      <point x="82" y="1315" type="line"/>
      <point x="82" y="1047" type="line"/>
      <point x="660" y="749" type="line"/>
      <point x="81" y="477" type="line"/>
    </contour>
  </outline>
</glyph>
<glyph name="at" format="1">
  <advance width="2048"/>
  <unicode hex="0040"/>
  <outline>
    <contour>
      <point x="1021" y="-108" type="curve" smooth="yes"/>
      <point x="1239" y="-108"/>
      <point x="1470" y="-58"/>
      <point x="1604" y="49" type="curve"/>
      <point x="1535" y="224" type="line"/>
      <point x="1394" y="146"/>
      <point x="1206" y="114"/>
      <point x="1024" y="114" type="curve" smooth="yes"/>
      <point x="652" y="114"/>
      <point x="437" y="386"/>
      <point x="437" y="716" type="curve" smooth="yes"/>
      <point x="437" y="1053"/>
      <point x="668" y="1385"/>
      <point x="1083" y="1385" type="curve" smooth="yes"/>
      <point x="1490" y="1385"/>
      <point x="1672" y="1124"/>
      <point x="1672" y="869" type="curve" smooth="yes"/>
      <point x="1672" y="605"/>
      <point x="1577" y="479"/>
      <point x="1491" y="479" type="curve" smooth="yes"/>
      <point x="1448" y="479"/>
      <point x="1422" y="516"/>
      <point x="1422" y="590" type="curve" smooth="yes"/>
      <point x="1422" y="720"/>
      <point x="1462" y="920"/>
      <point x="1491" y="1138" type="curve"/>
      <point x="1421" y="1176"/>
      <point x="1260" y="1232"/>
      <point x="1099" y="1232" type="curve" smooth="yes"/>
      <point x="769" y="1232"/>
      <point x="581" y="947"/>
      <point x="581" y="677" type="curve" smooth="yes"/>
      <point x="581" y="460"/>
      <point x="690" y="279"/>
      <point x="955" y="279" type="curve" smooth="yes"/>
      <point x="1085" y="279"/>
      <point x="1194" y="370"/>
      <point x="1245" y="518" type="curve"/>
      <point x="1272" y="372"/>
      <point x="1360" y="291"/>
      <point x="1491" y="291" type="curve"/>
      <point x="1698" y="291"/>
      <point x="1938" y="483"/>
      <point x="1938" y="861" type="curve" smooth="yes"/>
      <point x="1938" y="1309"/>
      <point x="1562" y="1615"/>
      <point x="1090" y="1615" type="curve" smooth="yes"/>
      <point x="549" y="1615"/>
      <point x="153" y="1216"/>
      <point x="153" y="720" type="curve" smooth="yes"/>
      <point x="153" y="191"/>
      <point x="506" y="-108"/>
    </contour>
    <contour>
      <point x="973" y="478" type="curve" smooth="yes"/>
      <point x="904" y="478"/>
      <point x="861" y="528"/>
      <point x="861" y="652" type="curve" smooth="yes"/>
      <point x="861" y="843"/>
      <point x="956" y="1033"/>
      <point x="1115" y="1033" type="curve" smooth="yes"/>
      <point x="1141" y="1033"/>
      <point x="1183" y="1030"/>
      <point x="1213" y="1026" type="curve"/>
      <point x="1177" y="795" type="line"/>
      <point x="1144" y="553"/>
      <point x="1086" y="478"/>
    </contour>
  </outline>
</glyph>
<glyph name="C" format="1">
  <advance width="1633"/>
  <unicode hex="0043"/>
  <outline>
    <contour>
      <point x="907" y="1456" type="move" name="top"/>
    </contour>
    <contour>
      <point x="878" y="-1" type="move" name="bot"/>
    </contour>
    <contour>
      <point x="862" y="-20" type="curve" smooth="yes"/>
      <point x="1287" y="-20"/>
      <point x="1456" y="229"/>
      <point x="1520" y="415" type="curve"/>
      <point x="1206" y="496" type="line"/>
      <point x="1185" y="496" type="line"/>
      <point x="1145" y="361"/>
      <point x="1039" y="279"/>
      <point x="892" y="279" type="curve" smooth="yes"/>
      <point x="671" y="279"/>
      <point x="561" y="429"/>
      <point x="561" y="736" type="curve" smooth="yes"/>
      <point x="561" y="1024"/>
      <point x="674" y="1166"/>
      <point x="902" y="1166" type="curve" smooth="yes"/>
      <point x="1052" y="1166"/>
      <point x="1160" y="1084"/>
      <point x="1205" y="929" type="curve"/>
      <point x="1236" y="929" type="line"/>
      <point x="1540" y="1009" type="line"/>
      <point x="1497" y="1179"/>
      <point x="1319" y="1478"/>
      <point x="872" y="1478" type="curve" smooth="yes"/>
      <point x="426" y="1478"/>
      <point x="107" y="1203"/>
      <point x="107" y="734" type="curve" smooth="yes"/>
      <point x="107" y="230"/>
      <point x="425" y="-20"/>
    </contour>
  </outline>
</glyph>
<glyph name="D" format="1">
  <advance width="1568"/>
  <unicode hex="0044"/>
  <outline>
    <contour>
      <point x="827" y="1456" type="move" name="top"/>
    </contour>
    <contour>
      <point x="767" y="1" type="move" name="bot"/>
    </contour>
    <contour>
      <point x="401" y="742" type="move" name="mid"/>
    </contour>
    <contour>
      <point x="604" y="293" type="curve" smooth="yes"/>
      <point x="602" y="293"/>
      <point x="592" y="293"/>
      <point x="590" y="293" type="curve"/>
      <point x="590" y="1186" type="line"/>
      <point x="593" y="1187"/>
      <point x="601" y="1187"/>
      <point x="604" y="1187" type="curve" smooth="yes"/>
      <point x="1019" y="1187"/>
      <point x="1051" y="969"/>
      <point x="1051" y="756" type="curve" smooth="yes"/>
      <point x="1051" y="464"/>
      <point x="934" y="293"/>
    </contour>
    <contour>
      <point x="488" y="-12" type="curve" smooth="yes"/>
      <point x="1243" y="-12"/>
      <point x="1461" y="303"/>
      <point x="1461" y="761" type="curve" smooth="yes"/>
      <point x="1461" y="1301"/>
      <point x="1192" y="1468"/>
      <point x="497" y="1468" type="curve" smooth="yes"/>
      <point x="395" y="1468"/>
      <point x="284" y="1465"/>
      <point x="164" y="1459" type="curve"/>
      <point x="164" y="4" type="line"/>
      <point x="281" y="-7"/>
      <point x="389" y="-12"/>
    </contour>
  </outline>
</glyph>
<glyph name="E" format="1">
  <advance width="1373"/>
  <unicode hex="0045"/>
  <outline>
    <contour>
      <point x="761" y="1456" type="move" name="top"/>
    </contour>
    <contour>
      <point x="999" y="0" type="move" name="ogonek"/>
    </contour>
    <contour>
      <point x="656" y="0" type="move" name="bot"/>
    </contour>
    <contour>
      <point x="164" y="0" type="line"/>
      <point x="1245" y="0" type="line"/>
      <point x="1247" y="287" type="line"/>
      <point x="589" y="287" type="line"/>
      <point x="589" y="604" type="line"/>
      <point x="1195" y="604" type="line"/>
      <point x="1195" y="883" type="line"/>
      <point x="589" y="883" type="line"/>
      <point x="589" y="1178" type="line"/>
      <point x="1204" y="1178" type="line"/>
      <point x="1226" y="1456" type="line"/>
      <point x="164" y="1456" type="line"/>
    </contour>
  </outline>
</glyph>
<glyph name="G" format="1">
  <advance width="1623"/>
  <unicode hex="0047"/>
  <outline>
    <contour>
      <point x="846" y="1456" type="move" name="top"/>
    </contour>
    <contour>
      <point x="748" y="-1" type="move" name="bot"/>
    </contour>
    <contour>
      <point x="845" y="-20" type="curve" smooth="yes"/>
      <point x="1103" y="-20"/>
      <point x="1343" y="35"/>
      <point x="1475" y="86" type="curve"/>
      <point x="1475" y="804" type="line"/>
      <point x="839" y="804" type="line"/>
      <point x="830" y="569" type="line"/>
      <point x="1129" y="549" type="line"/>
      <point x="1129" y="300" type="line"/>
      <point x="1074" y="278"/>
      <point x="1001" y="263"/>
      <point x="913" y="263" type="curve" smooth="yes"/>
      <point x="751" y="263"/>
      <point x="564" y="328"/>
      <point x="564" y="725" type="curve" smooth="yes"/>
      <point x="564" y="1068"/>
      <point x="670" y="1191"/>
      <point x="883" y="1191" type="curve" smooth="yes"/>
      <point x="1050" y="1191"/>
      <point x="1116" y="1076"/>
      <point x="1163" y="957" type="curve"/>
      <point x="1188" y="957" type="line"/>
      <point x="1480" y="1084" type="line"/>
      <point x="1403" y="1310"/>
      <point x="1217" y="1478"/>
      <point x="841" y="1478" type="curve" smooth="yes"/>
      <point x="392" y="1478"/>
      <point x="107" y="1210"/>
      <point x="107" y="724" type="curve" smooth="yes"/>
      <point x="107" y="230"/>
      <point x="400" y="-20"/>
    </contour>
  </outline>
</glyph>
<glyph name="I" format="1">
  <advance width="1071"/>
  <unicode hex="0049"/>
  <outline>
    <contour>
      <point x="540" y="1456" type="move" name="top"/>
    </contour>
    <contour>
      <point x="562" y="0" type="move" name="ogonek"/>
    </contour>
    <contour>
      <point x="102" y="-7" type="line"/>
      <point x="971" y="-7" type="line"/>
      <point x="971" y="218" type="line"/>
      <point x="753" y="218" type="line"/>
      <point x="753" y="1230" type="line"/>
      <point x="971" y="1230" type="line"/>
      <point x="971" y="1456" type="line"/>
      <point x="102" y="1456" type="line"/>
      <point x="102" y="1230" type="line"/>
      <point x="327" y="1230" type="line"/>
      <point x="327" y="218" type="line"/>
      <point x="102" y="218" type="line"/>
    </contour>
  </outline>
</glyph>
<glyph name="N" format="1">
  <advance width="1665"/>
  <unicode hex="004E"/>
  <outline>
    <contour>
      <point x="755" y="1456" type="move" name="top"/>
    </contour>
    <contour>
      <point x="780" y="0" type="move" name="bot"/>
    </contour>
    <contour>
      <point x="164" y="0" type="line"/>
      <point x="574" y="0" type="line"/>
      <point x="574" y="478" type="line"/>
      <point x="557" y="815" type="line"/>
      <point x="1087" y="0" type="line"/>
      <point x="1501" y="0" type="line"/>
      <point x="1501" y="1456" type="line"/>
      <point x="1102" y="1456" type="line"/>
      <point x="1102" y="961" type="line"/>
      <point x="1120" y="593" type="line"/>
      <point x="563" y="1456" type="line"/>
      <point x="164" y="1456" type="line"/>
    </contour>
  </outline>
</glyph>
<glyph name="O" format="1">
  <advance width="1671"/>
  <unicode hex="004F"/>
  <outline>
    <contour>
      <point x="824" y="1456" type="move" name="top"/>
    </contour>
    <contour>
      <point x="781" y="-1" type="move" name="ogonek"/>
    </contour>
    <contour>
      <point x="838" y="279" type="curve" smooth="yes"/>
      <point x="669" y="279"/>
      <point x="564" y="431"/>
      <point x="564" y="722" type="curve" smooth="yes"/>
      <point x="564" y="1008"/>
      <point x="667" y="1174"/>
      <point x="837" y="1174" type="curve" smooth="yes"/>
      <point x="1009" y="1174"/>
      <point x="1106" y="1008"/>
      <point x="1106" y="722" type="curve" smooth="yes"/>
      <point x="1106" y="432"/>
      <point x="1006" y="279"/>
    </contour>
    <contour>
      <point x="837" y="-22" type="curve" smooth="yes"/>
      <point x="1299" y="-22"/>
      <point x="1565" y="239"/>
      <point x="1565" y="726" type="curve" smooth="yes"/>
      <point x="1565" y="1202"/>
      <point x="1299" y="1478"/>
      <point x="836" y="1478" type="curve" smooth="yes"/>
      <point x="376" y="1478"/>
      <point x="106" y="1203"/>
      <point x="106" y="723" type="curve" smooth="yes"/>
      <point x="106" y="242"/>
      <point x="378" y="-22"/>
    </contour>
  </outline>
</glyph>
<glyph name="R" format="1">
  <advance width="1533"/>
  <unicode hex="0052"/>
  <outline>
    <contour>
      <point x="770" y="1456" type="move" name="top"/>
    </contour>
    <contour>
      <point x="757" y="0" type="move" name="bot"/>
    </contour>
    <contour>
      <point x="164" y="0" type="line"/>
      <point x="590" y="0" type="line"/>
      <point x="590" y="592" type="line"/>
      <point x="714" y="592" type="line"/>
      <point x="1016" y="0" type="line"/>
      <point x="1482" y="0" type="line"/>
      <point x="1482" y="15" type="line"/>
      <point x="1138" y="652" type="line"/>
      <point x="1256" y="692"/>
      <point x="1395" y="779"/>
      <point x="1395" y="1026" type="curve" smooth="yes"/>
      <point x="1396" y="1390"/>
      <point x="1230" y="1468"/>
      <point x="758" y="1468" type="curve" smooth="yes"/>
      <point x="600" y="1468"/>
      <point x="330" y="1463"/>
      <point x="164" y="1456" type="curve"/>
    </contour>
    <contour>
      <point x="590" y="843" type="line"/>
      <point x="590" y="1188" type="line"/>
      <point x="654" y="1194"/>
      <point x="720" y="1200"/>
      <point x="780" y="1200" type="curve" smooth="yes"/>
      <point x="910" y="1200"/>
      <point x="1007" y="1169"/>
      <point x="1007" y="1034" type="curve" smooth="yes"/>
      <point x="1007" y="883"/>
      <point x="933" y="843"/>
      <point x="775" y="843" type="curve" smooth="yes"/>
    </contour>
  </outline>
</glyph>
<glyph name="S" format="1">
  <advance width="1271"/>
  <unicode hex="0053"/>
  <outline>
    <contour>
      <point x="593" y="1457" type="move" name="top"/>
    </contour>
    <contour>
      <point x="622" y="0" type="move" name="bot"/>
    </contour>
    <contour>
      <point x="638" y="-20" type="curve" smooth="yes"/>
      <point x="963" y="-20"/>
      <point x="1180" y="144"/>
      <point x="1180" y="422" type="curve" smooth="yes"/>
      <point x="1180" y="684"/>
      <point x="1054" y="779"/>
      <point x="853" y="860" type="curve"/>
      <point x="690" y="926" type="line"/>
      <point x="568" y="972"/>
      <point x="521" y="1004"/>
      <point x="521" y="1079" type="curve" smooth="yes"/>
      <point x="521" y="1161"/>
      <point x="587" y="1204"/>
      <point x="661" y="1204" type="curve" smooth="yes"/>
      <point x="751" y="1204"/>
      <point x="819" y="1159"/>
      <point x="861" y="1045" type="curve"/>
      <point x="888" y="1045" type="line"/>
      <point x="1136" y="1171" type="line"/>
      <point x="1106" y="1319"/>
      <point x="940" y="1478"/>
      <point x="624" y="1478" type="curve" smooth="yes"/>
      <point x="345" y="1478"/>
      <point x="105" y="1347"/>
      <point x="105" y="1047" type="curve" smooth="yes"/>
      <point x="105" y="819"/>
      <point x="213" y="713"/>
      <point x="361" y="652" type="curve" smooth="yes"/>
      <point x="590" y="560" type="line" smooth="yes"/>
      <point x="732" y="501"/>
      <point x="749" y="462"/>
      <point x="749" y="393" type="curve" smooth="yes"/>
      <point x="749" y="315"/>
      <point x="681" y="276"/>
      <point x="603" y="276" type="curve" smooth="yes"/>
      <point x="512" y="276"/>
      <point x="410" y="329"/>
      <point x="384" y="437" type="curve"/>
      <point x="347" y="437" type="line"/>
      <point x="88" y="271" type="line"/>
      <point x="145" y="117"/>
      <point x="332" y="-20"/>
    </contour>
  </outline>
</glyph>
<glyph name="T" format="1">
  <advance width="1312"/>
  <unicode hex="0054"/>
  <outline>
    <contour>
      <point x="664" y="1456" type="move" name="top"/>
    </contour>
    <contour>
      <point x="663" y="0" type="move" name="bot"/>
    </contour>
    <contour>
      <point x="652" y="626" type="move" name="mid"/>
    </contour>
    <contour>
      <point x="444" y="-7" type="line"/>
      <point x="870" y="-7" type="line"/>
      <point x="870" y="1195" type="line"/>
      <point x="1261" y="1195" type="line"/>
      <point x="1261" y="1456" type="line"/>
      <point x="51" y="1456" type="line"/>
      <point x="51" y="1195" type="line"/>
      <point x="444" y="1195" type="line"/>
    </contour>
  </outline>
</glyph>
<glyph name="U" format="1">
  <advance width="1546"/>
  <unicode hex="0055"/>
  <outline>
    <contour>
      <point x="772" y="1456" type="move" name="top"/>
    </contour>
    <contour>
      <point x="829" y="-3" type="move" name="ogonek"/>
    </contour>
    <contour>
      <point x="791" y="0" type="move" name="bot"/>
    </contour>
    <contour>
      <point x="768" y="-20" type="curve" smooth="yes"/>
      <point x="1179" y="-20"/>
      <point x="1411" y="182"/>
      <point x="1411" y="531" type="curve" smooth="yes"/>
      <point x="1411" y="1456" type="line"/>
      <point x="985" y="1456" type="line"/>
      <point x="985" y="559" type="line" smooth="yes"/>
      <point x="985" y="358"/>
      <point x="905" y="280"/>
      <point x="768" y="280" type="curve" smooth="yes"/>
      <point x="642" y="280"/>
      <point x="562" y="356"/>
      <point x="562" y="558" type="curve" smooth="yes"/>
      <point x="562" y="1456" type="line"/>
      <point x="136" y="1456" type="line"/>
      <point x="136" y="530" type="line" smooth="yes"/>
      <point x="136" y="181"/>
      <point x="358" y="-20"/>
    </contour>
  </outline>
</glyph>
<glyph name="bracketleft" format="1">
  <advance width="823"/>
  <unicode hex="005B"/>
  <outline>
    <contour>
      <point x="229" y="-248" type="line"/>
      <point x="672" y="-248" type="line"/>
      <point x="672" y="-19" type="line"/>
      <point x="494" y="-19" type="line"/>
      <point x="494" y="1259" type="line"/>
      <point x="672" y="1259" type="line"/>
      <point x="672" y="1485" type="line"/>
      <point x="229" y="1485" type="line"/>
    </contour>
  </outline>
</glyph>
<glyph name="bracketright" format="1">
  <advance width="965"/>
  <unicode hex="005D"/>
  <outline>
    <contour>
      <point x="299" y="-248" type="line"/>
      <point x="742" y="-248" type="line"/>
      <point x="742" y="1485" type="line"/>
      <point x="299" y="1485" type="line"/>
      <point x="299" y="1259" type="line"/>
      <point x="476" y="1259" type="line"/>
      <point x="476" y="-19" type="line"/>
      <point x="299" y="-19" type="line"/>
    </contour>
  </outline>
</glyph>
<glyph name="asciicircum" format="1">
  <advance width="1552"/>
  <unicode hex="005E"/>
  <outline>
    <contour>
      <point x="112" y="266" type="line"/>
      <point x="511" y="266" type="line"/>
      <point x="764" y="857" type="line"/>
      <point x="1042" y="266" type="line"/>
      <point x="1440" y="266" type="line"/>
      <point x="840" y="1456" type="line"/>
      <point x="669" y="1456" type="line"/>
    </contour>
  </outline>
</glyph>
<glyph name="a" format="1">
  <advance width="1172"/>
  <unicode hex="0061"/>
  <outline>
    <contour>
      <point x="561" y="1081" type="move" name="top"/>
    </contour>
    <contour>
      <point x="897" y="-1" type="move" name="ogonek"/>
    </contour>
    <contour>
      <point x="665" y="-1" type="move" name="bot"/>
    </contour>
    <contour>
      <point x="408" y="-16" type="curve" smooth="yes"/>
      <point x="575" y="-16"/>
      <point x="673" y="48"/>
      <point x="743" y="116" type="curve"/>
      <point x="785" y="0" type="line"/>
      <point x="1077" y="0" type="line"/>
      <point x="1077" y="616" type="line" smooth="yes"/>
      <point x="1077" y="960"/>
      <point x="867" y="1099"/>
      <point x="604" y="1099" type="curve" smooth="yes"/>
      <point x="453" y="1099"/>
      <point x="283" y="1054"/>
      <point x="116" y="976" type="curve"/>
      <point x="186" y="745" type="line"/>
      <point x="312" y="788"/>
      <point x="434" y="824"/>
      <point x="527" y="824" type="curve" smooth="yes"/>
      <point x="620" y="824"/>
      <point x="685" y="789"/>
      <point x="685" y="694" type="curve" smooth="yes"/>
      <point x="685" y="633" type="line"/>
      <point x="558" y="634" type="line" smooth="yes"/>
      <point x="365" y="634"/>
      <point x="77" y="576"/>
      <point x="77" y="307" type="curve" smooth="yes"/>
      <point x="77" y="95"/>
      <point x="214" y="-16"/>
    </contour>
    <contour>
      <point x="548" y="192" type="curve" smooth="yes"/>
      <point x="489" y="192"/>
      <point x="431" y="229"/>
      <point x="431" y="314" type="curve" smooth="yes"/>
      <point x="431" y="436"/>
      <point x="553" y="462"/>
      <point x="653" y="462" type="curve" smooth="yes"/>
      <point x="682" y="462" type="line"/>
      <point x="682" y="245" type="line"/>
      <point x="661" y="223"/>
      <point x="611" y="192"/>
    </contour>
  </outline>
</glyph>
<glyph name="b" format="1">
  <advance width="1294"/>
  <unicode hex="0062"/>
  <outline>
    <contour>
      <point x="814" y="1082" type="move" name="top"/>
    </contour>
    <contour>
      <point x="783" y="-20" type="curve" smooth="yes"/>
      <point x="1080" y="-20"/>
      <point x="1222" y="218"/>
      <point x="1222" y="551" type="curve" smooth="yes"/>
      <point x="1222" y="859"/>
      <point x="1080" y="1101"/>
      <point x="795" y="1101" type="curve" smooth="yes"/>
      <point x="660" y="1101"/>
      <point x="572" y="1046"/>
      <point x="519" y="965" type="curve"/>
      <point x="529" y="1159" type="line"/>
      <point x="529" y="1560" type="line"/>
      <point x="130" y="1540" type="line"/>
      <point x="130" y="0" type="line"/>
      <point x="490" y="0" type="line"/>
      <point x="499" y="140" type="line"/>
      <point x="540" y="65"/>
      <point x="628" y="-20"/>
    </contour>
    <contour>
      <point x="682" y="231" type="curve" smooth="yes"/>
      <point x="582" y="231"/>
      <point x="555" y="268"/>
      <point x="529" y="300" type="curve"/>
      <point x="529" y="567" type="line" smooth="yes"/>
      <point x="529" y="814"/>
      <point x="626" y="849"/>
      <point x="694" y="849" type="curve" smooth="yes"/>
      <point x="754" y="849"/>
      <point x="816" y="809"/>
      <point x="816" y="552" type="curve" smooth="yes"/>
      <point x="816" y="304"/>
      <point x="742" y="231"/>
    </contour>
  </outline>
</glyph>
<glyph name="c" format="1">
  <advance width="1145"/>
  <unicode hex="0063"/>
  <outline>
    <contour>
      <point x="622" y="1082" type="move" name="top"/>
    </contour>
    <contour>
      <point x="634" y="0" type="move" name="bot"/>
    </contour>
    <contour>
      <point x="649" y="-20" type="curve" smooth="yes"/>
      <point x="851" y="-20"/>
      <point x="988" y="49"/>
      <point x="1082" y="249" type="curve"/>
      <point x="868" y="359" type="line"/>
      <point x="855" y="359" type="line"/>
      <point x="801" y="266"/>
      <point x="735" y="245"/>
      <point x="661" y="248" type="curve" smooth="yes"/>
      <point x="561" y="251"/>
      <point x="472" y="303"/>
      <point x="472" y="541" type="curve" smooth="yes"/>
      <point x="472" y="773"/>
      <point x="566" y="834"/>
      <point x="665" y="834" type="curve" smooth="yes"/>
      <point x="739" y="837"/>
      <point x="805" y="815"/>
      <point x="859" y="722" type="curve"/>
      <point x="872" y="722" type="line"/>
      <point x="1085" y="832" type="line"/>
      <point x="991" y="1032"/>
      <point x="855" y="1101"/>
      <point x="653" y="1101" type="curve" smooth="yes"/>
      <point x="296" y="1101"/>
      <point x="71" y="887"/>
      <point x="71" y="541" type="curve" smooth="yes"/>
      <point x="71" y="195"/>
      <point x="292" y="-20"/>
    </contour>
  </outline>
</glyph>
<glyph name="d" format="1">
  <advance width="1293"/>
  <unicode hex="0064"/>
  <outline>
    <contour>
      <point x="440" y="1082" type="move" name="top"/>
    </contour>
    <contour>
      <point x="972" y="1066" type="move" name="caron.alt"/>
    </contour>
    <contour>
      <point x="928" y="1290" type="move" name="mid"/>
    </contour>
    <contour>
      <point x="499" y="-20" type="curve" smooth="yes"/>
      <point x="658" y="-20"/>
      <point x="751" y="60"/>
      <point x="797" y="162" type="curve"/>
      <point x="804" y="0" type="line"/>
      <point x="1164" y="0" type="line"/>
      <point x="1164" y="1560" type="line"/>
      <point x="767" y="1540" type="line"/>
      <point x="767" y="1134" type="line"/>
      <point x="771" y="977" type="line"/>
      <point x="724" y="1041"/>
      <point x="641" y="1101"/>
      <point x="509" y="1102" type="curve"/>
      <point x="212" y="1101"/>
      <point x="76" y="863"/>
      <point x="76" y="531" type="curve" smooth="yes"/>
      <point x="76" y="222"/>
      <point x="214" y="-20"/>
    </contour>
    <contour>
      <point x="609" y="233" type="curve" smooth="yes"/>
      <point x="549" y="233"/>
      <point x="477" y="275"/>
      <point x="477" y="530" type="curve" smooth="yes"/>
      <point x="477" y="823"/>
      <point x="565" y="851"/>
      <point x="624" y="851" type="curve" smooth="yes"/>
      <point x="702" y="851"/>
      <point x="737" y="814"/>
      <point x="765" y="781" type="curve"/>
      <point x="765" y="327" type="line"/>
      <point x="737" y="270"/>
      <point x="680" y="233"/>
    </contour>
  </outline>
</glyph>
<glyph name="e" format="1">
  <advance width="1215"/>
  <unicode hex="0065"/>
  <outline>
    <contour>
      <point x="624" y="1082" type="move" name="top"/>
    </contour>
    <contour>
      <point x="798" y="2" type="move" name="ogonek"/>
    </contour>
    <contour>
      <point x="671" y="0" type="move" name="bot"/>
    </contour>
    <contour>
      <point x="670" y="-20" type="curve" smooth="yes"/>
      <point x="860" y="-20"/>
      <point x="1032" y="37"/>
      <point x="1115" y="122" type="curve"/>
      <point x="1029" y="319" type="line"/>
      <point x="1011" y="319" type="line"/>
      <point x="929" y="266"/>
      <point x="821" y="231"/>
      <point x="715" y="231" type="curve" smooth="yes"/>
      <point x="586" y="231"/>
      <point x="486" y="312"/>
      <point x="469" y="427" type="curve"/>
      <point x="1111" y="427" type="line"/>
      <point x="1111" y="428"/>
      <point x="1124" y="481"/>
      <point x="1124" y="573" type="curve" smooth="yes"/>
      <point x="1112" y="878"/>
      <point x="990" y="1101"/>
      <point x="628" y="1101" type="curve" smooth="yes"/>
      <point x="282" y="1101"/>
      <point x="71" y="885"/>
      <point x="71" y="543" type="curve" smooth="yes"/>
      <point x="71" y="198"/>
      <point x="299" y="-20"/>
    </contour>
    <contour>
      <point x="460" y="636" type="line"/>
      <point x="465" y="807"/>
      <point x="542" y="854"/>
      <point x="641" y="854" type="curve" smooth="yes"/>
      <point x="733" y="854"/>
      <point x="789" y="804"/>
      <point x="789" y="636" type="curve"/>
    </contour>
  </outline>
</glyph>
<glyph name="f" format="1">
  <advance width="861"/>
  <unicode hex="0066"/>
  <outline>
    <contour>
      <point x="482" y="1456" type="move" name="top"/>
    </contour>
    <contour>
      <point x="162" y="0" type="line"/>
      <point x="567" y="0" type="line"/>
      <point x="567" y="856" type="line"/>
      <point x="828" y="856" type="line"/>
      <point x="828" y="1082" type="line"/>
      <point x="567" y="1082" type="line"/>
      <point x="567" y="1157" type="line" smooth="yes"/>
      <point x="567" y="1234"/>
      <point x="629" y="1266"/>
      <point x="723" y="1266" type="curve" smooth="yes"/>
      <point x="758" y="1266"/>
      <point x="787" y="1264"/>
      <point x="867" y="1253" type="curve"/>
      <point x="876" y="1488" type="line"/>
      <point x="840" y="1498"/>
      <point x="748" y="1522"/>
      <point x="575" y="1522" type="curve" smooth="yes"/>
      <point x="358" y="1522"/>
      <point x="162" y="1438"/>
      <point x="162" y="1157" type="curve" smooth="yes"/>
      <point x="162" y="1076" type="line"/>
      <point x="33" y="1053" type="line"/>
      <point x="28" y="856" type="line"/>
      <point x="162" y="856" type="line"/>
    </contour>
  </outline>
</glyph>
<glyph name="g" format="1">
  <advance width="1269"/>
  <unicode hex="0067"/>
  <outline>
    <contour>
      <point x="575" y="1082" type="move" name="top"/>
    </contour>
    <contour>
      <point x="590" y="-518" type="curve" smooth="yes"/>
      <point x="879" y="-518"/>
      <point x="1159" y="-378"/>
      <point x="1159" y="-29" type="curve" smooth="yes"/>
      <point x="1159" y="1082" type="line"/>
      <point x="761" y="1082" type="line"/>
      <point x="763" y="995" type="line"/>
      <point x="717" y="1050"/>
      <point x="642" y="1101"/>
      <point x="518" y="1101" type="curve" smooth="yes"/>
      <point x="324" y="1101"/>
      <point x="71" y="967"/>
      <point x="71" y="568" type="curve" smooth="yes"/>
      <point x="71" y="69"/>
      <point x="341" y="2"/>
      <point x="502" y="2" type="curve" smooth="yes"/>
      <point x="655" y="2"/>
      <point x="738" y="49"/>
      <point x="784" y="98" type="curve"/>
      <point x="796" y="9"/>
      <point x="797" y="-12"/>
      <point x="797" y="-29" type="curve" smooth="yes"/>
      <point x="797" y="-203"/>
      <point x="670" y="-268"/>
      <point x="506" y="-268" type="curve" smooth="yes"/>
      <point x="428" y="-268"/>
      <point x="338" y="-252"/>
      <point x="243" y="-226" type="curve"/>
      <point x="212" y="-226" type="line"/>
      <point x="185" y="-474" type="line"/>
      <point x="310" y="-509"/>
      <point x="444" y="-518"/>
    </contour>
    <contour>
      <point x="620" y="231" type="curve" smooth="yes"/>
      <point x="538" y="231"/>
      <point x="474" y="319"/>
      <point x="474" y="566" type="curve" smooth="yes"/>
      <point x="474" y="837"/>
      <point x="581" y="849"/>
      <point x="627" y="849" type="curve" smooth="yes"/>
      <point x="705" y="849"/>
      <point x="724" y="825"/>
      <point x="763" y="791" type="curve"/>
      <point x="763" y="275" type="line"/>
      <point x="728" y="252"/>
      <point x="669" y="231"/>
    </contour>
  </outline>
</glyph>
<glyph name="h" format="1">
  <advance width="1289"/>
  <unicode hex="0068"/>
  <outline>
    <contour>
      <point x="861" y="1358" type="move" name="top"/>
    </contour>
    <contour>
      <point x="434" y="1242" type="move" name="mid"/>
    </contour>
    <contour>
      <point x="130" y="0" type="line"/>
      <point x="534" y="0" type="line"/>
      <point x="534" y="627" type="line" smooth="yes"/>
      <point x="534" y="803"/>
      <point x="600" y="849"/>
      <point x="660" y="849" type="curve" smooth="yes"/>
      <point x="735" y="849"/>
      <point x="775" y="807"/>
      <point x="775" y="618" type="curve" smooth="yes"/>
      <point x="775" y="0" type="line"/>
      <point x="1179" y="0" type="line"/>
      <point x="1179" y="674" type="line" smooth="yes"/>
      <point x="1179" y="936"/>
      <point x="1074" y="1101"/>
      <point x="831" y="1101" type="curve" smooth="yes"/>
      <point x="671" y="1101"/>
      <point x="579" y="1030"/>
      <point x="528" y="927" type="curve"/>
      <point x="534" y="1161" type="line"/>
      <point x="534" y="1560" type="line"/>
      <point x="130" y="1540" type="line"/>
    </contour>
  </outline>
</glyph>
<glyph name="i" format="1">
  <advance width="677"/>
  <unicode hex="0069"/>
  <outline>
    <contour>
      <point x="345" y="1082" type="move" name="top"/>
    </contour>
    <contour>
      <point x="339" y="0" type="move" name="ogonek"/>
    </contour>
    <contour>
      <point x="138" y="0" type="line"/>
      <point x="543" y="0" type="line"/>
      <point x="543" y="1082" type="line"/>
      <point x="138" y="1082" type="line"/>
    </contour>
    <component base="dotaccent" xOffset="1"/>
  </outline>
</glyph>
<glyph name="k" format="1">
  <advance width="1256"/>
  <unicode hex="006B"/>
  <outline>
    <contour>
      <point x="677" y="0" type="move" name="bot"/>
    </contour>
    <contour>
      <point x="130" y="0" type="line"/>
      <point x="534" y="0" type="line"/>
      <point x="534" y="411" type="line"/>
      <point x="563" y="441" type="line"/>
      <point x="838" y="0" type="line"/>
      <point x="1238" y="0" type="line"/>
      <point x="1238" y="33" type="line"/>
      <point x="867" y="582" type="line"/>
      <point x="1228" y="1065" type="line"/>
      <point x="1228" y="1082" type="line"/>
      <point x="813" y="1082" type="line"/>
      <point x="529" y="705" type="line"/>
      <point x="534" y="823" type="line"/>
      <point x="534" y="1560" type="line"/>
      <point x="130" y="1540" type="line"/>
    </contour>
  </outline>
</glyph>
<glyph name="o" format="1">
  <advance width="1267"/>
  <unicode hex="006F"/>
  <outline>
    <contour>
      <point x="635" y="1082" type="move" name="top"/>
    </contour>
    <contour>
      <point x="654" y="0" type="move" name="ogonek"/>
    </contour>
    <contour>
      <point x="634" y="231" type="curve" smooth="yes"/>
      <point x="538" y="231"/>
      <point x="473" y="308"/>
      <point x="473" y="546" type="curve" smooth="yes"/>
      <point x="473" y="775"/>
      <point x="535" y="849"/>
      <point x="634" y="849" type="curve" smooth="yes"/>
      <point x="732" y="849"/>
      <point x="794" y="775"/>
      <point x="794" y="546" type="curve" smooth="yes"/>
      <point x="794" y="311"/>
      <point x="728" y="231"/>
    </contour>
    <contour>
      <point x="634" y="-22" type="curve" smooth="yes"/>
      <point x="980" y="-22"/>
      <point x="1196" y="210"/>
      <point x="1196" y="546" type="curve" smooth="yes"/>
      <point x="1196" y="872"/>
      <point x="976" y="1101"/>
      <point x="634" y="1101" type="curve" smooth="yes"/>
      <point x="291" y="1101"/>
      <point x="71" y="872"/>
      <point x="71" y="546" type="curve" smooth="yes"/>
      <point x="71" y="210"/>
      <point x="287" y="-22"/>
    </contour>
  </outline>
</glyph>
<glyph name="r" format="1">
  <advance width="902"/>
  <unicode hex="0072"/>
  <outline>
    <contour>
      <point x="414" y="1082" type="move" name="top"/>
    </contour>
    <contour>
      <point x="380" y="0" type="move" name="bot"/>
    </contour>
    <contour>
      <point x="110" y="0" type="line"/>
      <point x="514" y="0" type="line"/>
      <point x="514" y="607" type="line" smooth="yes"/>
      <point x="514" y="747"/>
      <point x="649" y="793"/>
      <point x="755" y="793" type="curve" smooth="yes"/>
      <point x="775" y="793"/>
      <point x="814" y="790"/>
      <point x="851" y="783" type="curve"/>
      <point x="875" y="1072" type="line"/>
      <point x="833" y="1080"/>
      <point x="789" y="1085"/>
      <point x="748" y="1085" type="curve" smooth="yes"/>
      <point x="643" y="1085"/>
      <point x="546" y="1048"/>
      <point x="483" y="919" type="curve"/>
      <point x="465" y="1082" type="line"/>
      <point x="110" y="1082" type="line"/>
    </contour>
  </outline>
</glyph>
<glyph name="s" format="1">
  <advance width="1030"/>
  <unicode hex="0073"/>
  <outline>
    <contour>
      <point x="479" y="1081" type="move" name="top"/>
    </contour>
    <contour>
      <point x="528" y="0" type="move" name="bot"/>
    </contour>
    <contour>
      <point x="553" y="-20" type="curve" smooth="yes"/>
      <point x="833" y="-20"/>
      <point x="981" y="157"/>
      <point x="981" y="332" type="curve" smooth="yes"/>
      <point x="981" y="445"/>
      <point x="942" y="541"/>
      <point x="786" y="611" type="curve"/>
      <point x="584" y="704" type="line" smooth="yes"/>
      <point x="521" y="733"/>
      <point x="509" y="753"/>
      <point x="509" y="786" type="curve" smooth="yes"/>
      <point x="509" y="826"/>
      <point x="539" y="854"/>
      <point x="602" y="854" type="curve" smooth="yes"/>
      <point x="684" y="854"/>
      <point x="757" y="813"/>
      <point x="823" y="750" type="curve"/>
      <point x="839" y="751" type="line"/>
      <point x="978" y="912" type="line"/>
      <point x="857" y="1047"/>
      <point x="718" y="1101"/>
      <point x="524" y="1101" type="curve" smooth="yes"/>
      <point x="271" y="1101"/>
      <point x="100" y="975"/>
      <point x="100" y="773" type="curve" smooth="yes"/>
      <point x="100" y="603"/>
      <point x="200" y="515"/>
      <point x="389" y="436" type="curve" smooth="yes"/>
      <point x="533" y="375" type="line" smooth="yes"/>
      <point x="594" y="350"/>
      <point x="598" y="328"/>
      <point x="598" y="299" type="curve" smooth="yes"/>
      <point x="598" y="262"/>
      <point x="572" y="230"/>
      <point x="504" y="230" type="curve" smooth="yes"/>
      <point x="422" y="230"/>
      <point x="300" y="277"/>
      <point x="222" y="369" type="curve"/>
      <point x="205" y="369" type="line"/>
      <point x="45" y="188" type="line"/>
      <point x="162" y="47"/>
      <point x="327" y="-20"/>
    </contour>
  </outline>
</glyph>
<glyph name="u" format="1">
  <advance width="1282"/>
  <unicode hex="0075"/>
  <outline>
    <contour>
      <point x="637" y="1082" type="move" name="top"/>
    </contour>
    <contour>
      <point x="992" y="0" type="move" name="ogonek"/>
    </contour>
    <contour>
      <point x="656" y="0" type="move" name="bot"/>
    </contour>
    <contour>
      <point x="476" y="-20" type="curve" smooth="yes"/>
      <point x="651" y="-20"/>
      <point x="743" y="72"/>
      <point x="792" y="169" type="curve"/>
      <point x="811" y="0" type="line"/>
      <point x="1159" y="0" type="line"/>
      <point x="1159" y="1082" type="line"/>
      <point x="755" y="1082" type="line"/>
      <point x="755" y="305" type="line"/>
      <point x="725" y="266"/>
      <point x="684" y="233"/>
      <point x="627" y="233" type="curve" smooth="yes"/>
      <point x="554" y="233"/>
      <point x="514" y="275"/>
      <point x="514" y="466" type="curve" smooth="yes"/>
      <point x="514" y="1082" type="line"/>
      <point x="110" y="1082" type="line"/>
      <point x="110" y="410" type="line" smooth="yes"/>
      <point x="110" y="147"/>
      <point x="236" y="-20"/>
    </contour>
  </outline>
</glyph>
<glyph name="x" format="1">
  <advance width="1108"/>
  <unicode hex="0078"/>
  <outline>
    <contour>
      <point x="-18" y="-7" type="line"/>
      <point x="358" y="-7" type="line"/>
      <point x="541" y="250" type="line"/>
      <point x="708" y="-7" type="line"/>
      <point x="1133" y="-7" type="line"/>
      <point x="771" y="543" type="line"/>
      <point x="1106" y="1082" type="line"/>
      <point x="737" y="1082" type="line"/>
      <point x="579" y="837" type="line"/>
      <point x="418" y="1082" type="line"/>
      <point x="-1" y="1082" type="line"/>
      <point x="350" y="542" type="line"/>
    </contour>
  </outline>
</glyph>
<glyph name="y" format="1">
  <advance width="1137"/>
  <unicode hex="0079"/>
  <outline>
    <contour>
      <point x="545" y="1082" type="move" name="top"/>
    </contour>
    <contour>
      <point x="461" y="-463" type="line"/>
      <point x="1168" y="1082" type="line"/>
      <point x="797" y="1082" type="line"/>
      <point x="576" y="541" type="line"/>
      <point x="342" y="1082" type="line"/>
      <point x="-46" y="1082" type="line"/>
      <point x="378" y="177" type="line"/>
      <point x="144" y="-334" type="line"/>
    </contour>
  </outline>
</glyph>
<glyph name="braceleft" format="1">
  <advance width="985"/>
  <unicode hex="007B"/>
  <outline>
    <contour>
      <point x="852" y="-332" type="curve"/>
      <point x="852" y="-127" type="line"/>
      <point x="732" y="-122"/>
      <point x="663" y="-117"/>
      <point x="663" y="5" type="curve" smooth="yes"/>
      <point x="663" y="373" type="line" smooth="yes"/>
      <point x="663" y="466"/>
      <point x="654" y="607"/>
      <point x="463" y="645" type="curve"/>
      <point x="654" y="683"/>
      <point x="663" y="824"/>
      <point x="663" y="917" type="curve" smooth="yes"/>
      <point x="663" y="1285" type="line" smooth="yes"/>
      <point x="663" y="1407"/>
      <point x="732" y="1413"/>
      <point x="852" y="1417" type="curve"/>
      <point x="852" y="1622" type="line"/>
      <point x="681" y="1622"/>
      <point x="408" y="1603"/>
      <point x="408" y="1374" type="curve" smooth="yes"/>
      <point x="408" y="936" type="line" smooth="yes"/>
      <point x="408" y="861"/>
      <point x="397" y="759"/>
      <point x="187" y="759" type="curve"/>
      <point x="187" y="531" type="line"/>
      <point x="397" y="531"/>
      <point x="408" y="429"/>
      <point x="408" y="354" type="curve" smooth="yes"/>
      <point x="408" y="-84" type="line" smooth="yes"/>
      <point x="408" y="-313"/>
      <point x="681" y="-332"/>
    </contour>
  </outline>
</glyph>
<glyph name="braceright" format="1">
  <advance width="985"/>
  <unicode hex="007D"/>
  <outline>
    <contour>
      <point x="174" y="-332" type="line"/>
      <point x="345" y="-332"/>
      <point x="618" y="-313"/>
      <point x="618" y="-84" type="curve" smooth="yes"/>
      <point x="618" y="354" type="line" smooth="yes"/>
      <point x="618" y="429"/>
      <point x="629" y="531"/>
      <point x="838" y="531" type="curve"/>
      <point x="838" y="759" type="line"/>
      <point x="628" y="759"/>
      <point x="618" y="861"/>
      <point x="618" y="936" type="curve" smooth="yes"/>
      <point x="618" y="1374" type="line" smooth="yes"/>
      <point x="618" y="1603"/>
      <point x="345" y="1622"/>
      <point x="174" y="1622" type="curve"/>
      <point x="174" y="1417" type="line"/>
      <point x="294" y="1413"/>
      <point x="362" y="1407"/>
      <point x="362" y="1285" type="curve" smooth="yes"/>
      <point x="362" y="917" type="line" smooth="yes"/>
      <point x="362" y="824"/>
      <point x="372" y="683"/>
      <point x="563" y="645" type="curve"/>
      <point x="372" y="607"/>
      <point x="362" y="466"/>
      <point x="362" y="373" type="curve" smooth="yes"/>
      <point x="362" y="5" type="line" smooth="yes"/>
      <point x="362" y="-117"/>
      <point x="294" y="-122"/>
      <point x="174" y="-127" type="curve"/>
    </contour>
  </outline>
</glyph>
<glyph name="cent" format="1">
  <advance width="1141"/>
  <unicode hex="00A2"/>
  <outline>
    <contour>
      <point x="558" y="-295" type="line"/>
      <point x="699" y="-295" type="line"/>
      <point x="698" y="61" type="line"/>
      <point x="569" y="61" type="line"/>
    </contour>
    <contour>
      <point x="571" y="1028" type="line"/>
      <point x="701" y="1028" type="line"/>
      <point x="724" y="1356" type="line"/>
      <point x="568" y="1356" type="line"/>
    </contour>
    <component base="c"/>
  </outline>
</glyph>
<glyph name="currency" format="1">
  <advance width="1098"/>
  <unicode hex="00A4"/>
  <outline>
    <contour>
      <point x="972" y="230" type="line"/>
      <point x="1086" y="351" type="line"/>
      <point x="911" y="523" type="line"/>
      <point x="952" y="592"/>
      <point x="974" y="667"/>
      <point x="974" y="752" type="curve" smooth="yes"/>
      <point x="974" y="839"/>
      <point x="947" y="917"/>
      <point x="910" y="981" type="curve"/>
      <point x="1087" y="1157" type="line"/>
      <point x="972" y="1278" type="line"/>
      <point x="791" y="1104" type="line"/>
      <point x="723" y="1157"/>
      <point x="647" y="1182"/>
      <point x="558" y="1182" type="curve" smooth="yes"/>
      <point x="472" y="1182"/>
      <point x="389" y="1149"/>
      <point x="324" y="1105" type="curve"/>
      <point x="150" y="1278" type="line"/>
      <point x="27" y="1157" type="line"/>
      <point x="207" y="981" type="line"/>
      <point x="167" y="910"/>
      <point x="142" y="836"/>
      <point x="142" y="752" type="curve" smooth="yes"/>
      <point x="142" y="667"/>
      <point x="169" y="587"/>
      <point x="207" y="523" type="curve"/>
      <point x="28" y="347" type="line"/>
      <point x="150" y="231" type="line"/>
      <point x="320" y="400" type="line"/>
      <point x="388" y="351"/>
      <point x="470" y="324"/>
      <point x="558" y="324" type="curve" smooth="yes"/>
      <point x="646" y="324"/>
      <point x="725" y="354"/>
      <point x="791" y="404" type="curve"/>
    </contour>
    <contour>
      <point x="558" y="504" type="curve" smooth="yes"/>
      <point x="432" y="504"/>
      <point x="317" y="611"/>
      <point x="317" y="752" type="curve" smooth="yes"/>
      <point x="317" y="892"/>
      <point x="432" y="1002"/>
      <point x="558" y="1002" type="curve" smooth="yes"/>
      <point x="685" y="1002"/>
      <point x="803" y="892"/>
      <point x="803" y="752" type="curve" smooth="yes"/>
      <point x="803" y="611"/>
      <point x="689" y="504"/>
    </contour>
  </outline>
</glyph>
<glyph name="copyright" format="1">
  <advance width="1812"/>
  <unicode hex="00A9"/>
  <outline>
    <contour>
      <point x="941" y="255" type="curve" smooth="yes"/>
      <point x="1041" y="255"/>
      <point x="1140" y="282"/>
      <point x="1225" y="334" type="curve"/>
      <point x="1174" y="471" type="line"/>
      <point x="1102" y="434"/>
      <point x="1026" y="414"/>
      <point x="957" y="414" type="curve" smooth="yes"/>
      <point x="798" y="414"/>
      <point x="672" y="515"/>
      <point x="672" y="741" type="curve" smooth="yes"/>
      <point x="672" y="969"/>
      <point x="798" y="1069"/>
      <point x="958" y="1069" type="curve" smooth="yes"/>
      <point x="1028" y="1069"/>
      <point x="1102" y="1049"/>
      <point x="1176" y="1012" type="curve"/>
      <point x="1225" y="1148" type="line"/>
      <point x="1141" y="1199"/>
      <point x="1041" y="1227"/>
      <point x="941" y="1227" type="curve" smooth="yes"/>
      <point x="703" y="1227"/>
      <point x="464" y="1076"/>
      <point x="464" y="740" type="curve" smooth="yes"/>
      <point x="464" y="407"/>
      <point x="703" y="255"/>
    </contour>
    <contour>
      <point x="919" y="111" type="curve" smooth="yes"/>
      <point x="580" y="111"/>
      <point x="316" y="395"/>
      <point x="316" y="729" type="curve" smooth="yes"/>
      <point x="316" y="1063"/>
      <point x="580" y="1346"/>
      <point x="919" y="1346" type="curve" smooth="yes"/>
      <point x="1257" y="1346"/>
      <point x="1520" y="1063"/>
      <point x="1520" y="729" type="curve" smooth="yes"/>
      <point x="1520" y="395"/>
      <point x="1257" y="111"/>
    </contour>
    <contour>
      <point x="919" y="-62" type="curve" smooth="yes"/>
      <point x="1363" y="-62"/>
      <point x="1709" y="298"/>
      <point x="1709" y="729" type="curve" smooth="yes"/>
      <point x="1709" y="1159"/>
      <point x="1363" y="1518"/>
      <point x="919" y="1518" type="curve" smooth="yes"/>
      <point x="473" y="1518"/>
      <point x="126" y="1159"/>
      <point x="126" y="729" type="curve" smooth="yes"/>
      <point x="126" y="298"/>
      <point x="473" y="-62"/>
    </contour>
  </outline>
</glyph>
<glyph name="logicalnot" format="1">
  <advance width="1183"/>
  <unicode hex="00AC"/>
  <outline>
    <contour>
      <point x="870" y="248" type="line"/>
      <point x="1106" y="248" type="line"/>
      <point x="1106" y="866" type="line"/>
      <point x="91" y="866" type="line"/>
      <point x="91" y="627" type="line"/>
      <point x="870" y="627" type="line"/>
    </contour>
  </outline>
</glyph>
<glyph name="uni00AD" format="1">
  <advance width="1105"/>
  <unicode hex="00AD"/>
  <outline>
    <contour>
      <point x="224" y="-12" type="line"/>
      <point x="867" y="-12" type="line"/>
      <point x="867" y="245" type="line"/>
      <point x="224" y="245" type="line"/>
    </contour>
  </outline>
</glyph>
<glyph name="degree" format="1">
  <advance width="816"/>
  <unicode hex="00B0"/>
  <outline>
    <contour>
      <point x="421" y="1073" type="curve" smooth="yes"/>
      <point x="352" y="1073"/>
      <point x="286" y="1121"/>
      <point x="286" y="1218" type="curve" smooth="yes"/>
      <point x="286" y="1309"/>
      <point x="352" y="1357"/>
      <point x="422" y="1357" type="curve" smooth="yes"/>
      <point x="485" y="1357"/>
      <point x="553" y="1309"/>
      <point x="553" y="1218" type="curve" smooth="yes"/>
      <point x="553" y="1120"/>
      <point x="488" y="1073"/>
    </contour>
    <contour>
      <point x="421" y="903" type="curve" smooth="yes"/>
      <point x="634" y="903"/>
      <point x="740" y="1063"/>
      <point x="740" y="1219" type="curve" smooth="yes"/>
      <point x="740" y="1378"/>
      <point x="630" y="1521"/>
      <point x="421" y="1521" type="curve" smooth="yes"/>
      <point x="207" y="1521"/>
      <point x="101" y="1378"/>
      <point x="101" y="1219" type="curve" smooth="yes"/>
      <point x="101" y="1063"/>
      <point x="203" y="903"/>
    </contour>
  </outline>
</glyph>
<glyph name="uni00B2" format="1">
  <advance width="861"/>
  <unicode hex="00B2"/>
  <outline>
    <contour>
      <point x="158" y="580" type="line"/>
      <point x="727" y="580" type="line"/>
      <point x="749" y="753" type="line"/>
      <point x="471" y="753" type="line"/>
      <point x="607" y="872"/>
      <point x="531" y="782"/>
      <point x="639" y="889" type="curve" smooth="yes"/>
      <point x="700" y="952"/>
      <point x="749" y="1069"/>
      <point x="749" y="1179" type="curve" smooth="yes"/>
      <point x="749" y="1365"/>
      <point x="603" y="1473"/>
      <point x="468" y="1473" type="curve" smooth="yes"/>
      <point x="341" y="1473"/>
      <point x="241" y="1434"/>
      <point x="178" y="1343" type="curve"/>
      <point x="263" y="1198" type="line"/>
      <point x="303" y="1255"/>
      <point x="377" y="1285"/>
      <point x="441" y="1285" type="curve" smooth="yes"/>
      <point x="484" y="1285"/>
      <point x="542" y="1243"/>
      <point x="542" y="1174" type="curve" smooth="yes"/>
      <point x="542" y="1145"/>
      <point x="478" y="1062"/>
      <point x="475" y="1045" type="curve" smooth="yes"/>
      <point x="255" y="800"/>
      <point x="248" y="846"/>
      <point x="158" y="751" type="curve"/>
    </contour>
  </outline>
</glyph>
<glyph name="acute" format="1">
  <advance width="811"/>
  <unicode hex="00B4"/>
  <outline>
    <contour>
      <point x="535" y="1082" type="move" name="_top"/>
    </contour>
    <contour>
      <point x="422" y="1207" type="line"/>
      <point x="639" y="1207" type="line"/>
      <point x="988" y="1622" type="line"/>
      <point x="592" y="1622" type="line"/>
    </contour>
  </outline>
</glyph>
<glyph name="uni00B5" format="1">
  <advance width="1284"/>
  <unicode hex="00B5"/>
  <outline>
    <contour>
      <point x="1167" y="1082" type="line"/>
      <point x="762" y="1082" type="line"/>
      <point x="762" y="305" type="line"/>
      <point x="733" y="266"/>
      <point x="692" y="233"/>
      <point x="634" y="233" type="curve" smooth="yes"/>
      <point x="562" y="233"/>
      <point x="521" y="275"/>
      <point x="521" y="466" type="curve" smooth="yes"/>
      <point x="521" y="1082" type="line"/>
      <point x="118" y="1082" type="line"/>
      <point x="118" y="-338" type="line"/>
      <point x="521" y="-338" type="line"/>
      <point x="521" y="-16" type="line"/>
      <point x="568" y="-13"/>
      <point x="609" y="-2"/>
      <point x="644" y="15" type="curve" smooth="yes"/>
      <point x="720" y="49"/>
      <point x="768" y="107"/>
      <point x="799" y="169" type="curve"/>
      <point x="819" y="0" type="line"/>
      <point x="1167" y="0" type="line"/>
    </contour>
  </outline>
</glyph>
<glyph name="periodcentered" format="1">
  <advance width="585"/>
  <unicode hex="00B7"/>
  <outline>
    <contour>
      <point x="532" y="432" type="curve" smooth="yes"/>
      <point x="644" y="432"/>
      <point x="714" y="507"/>
      <point x="714" y="629" type="curve" smooth="yes"/>
      <point x="714" y="746"/>
      <point x="644" y="818"/>
      <point x="532" y="818" type="curve" smooth="yes"/>
      <point x="417" y="818"/>
      <point x="346" y="746"/>
      <point x="346" y="629" type="curve" smooth="yes"/>
      <point x="346" y="507"/>
      <point x="417" y="432"/>
    </contour>
  </outline>
</glyph>
<glyph name="uni00B9" format="1">
  <advance width="850"/>
  <unicode hex="00B9"/>
  <outline>
    <contour>
      <point x="229" y="536" type="line"/>
      <point x="709" y="536" type="line"/>
      <point x="709" y="724" type="line"/>
      <point x="579" y="724" type="line"/>
      <point x="579" y="1451" type="line"/>
      <point x="408" y="1451" type="line"/>
      <point x="386" y="1444"/>
      <point x="257" y="1363"/>
      <point x="210" y="1333" type="curve"/>
      <point x="210" y="1147" type="line"/>
      <point x="223" y="1155"/>
      <point x="319" y="1208"/>
      <point x="352" y="1222" type="curve"/>
      <point x="352" y="724" type="line"/>
      <point x="229" y="724" type="line"/>
    </contour>
  </outline>
</glyph>
<glyph name="ordmasculine" format="1">
  <advance width="1068"/>
  <unicode hex="00BA"/>
  <outline>
    <contour>
      <point x="525" y="830" type="curve" smooth="yes"/>
      <point x="412" y="830"/>
      <point x="358" y="911"/>
      <point x="358" y="1076" type="curve" smooth="yes"/>
      <point x="358" y="1243"/>
      <point x="412" y="1326"/>
      <point x="525" y="1326" type="curve" smooth="yes"/>
      <point x="642" y="1326"/>
      <point x="699" y="1243"/>
      <point x="699" y="1076" type="curve" smooth="yes"/>
      <point x="699" y="911"/>
      <point x="642" y="830"/>
    </contour>
    <contour>
      <point x="525" y="598" type="curve" smooth="yes"/>
      <point x="820" y="598"/>
      <point x="985" y="771"/>
      <point x="985" y="1076" type="curve" smooth="yes"/>
      <point x="985" y="1384"/>
      <point x="821" y="1557"/>
      <point x="525" y="1557" type="curve" smooth="yes"/>
      <point x="229" y="1557"/>
      <point x="65" y="1384"/>
      <point x="65" y="1076" type="curve" smooth="yes"/>
      <point x="65" y="770"/>
      <point x="229" y="598"/>
    </contour>
  </outline>
</glyph>
<glyph name="onequarter" format="1">
  <advance width="1828"/>
  <unicode hex="00BC"/>
  <outline>
    <contour>
      <point x="107" y="602" type="line"/>
      <point x="601" y="602" type="line"/>
      <point x="601" y="771" type="line"/>
      <point x="466" y="771" type="line"/>
      <point x="466" y="1515" type="line"/>
      <point x="298" y="1515" type="line"/>
      <point x="275" y="1508"/>
      <point x="145" y="1425"/>
      <point x="87" y="1397" type="curve"/>
      <point x="87" y="1228" type="line"/>
      <point x="96" y="1229"/>
      <point x="231" y="1289"/>
      <point x="266" y="1303" type="curve"/>
      <point x="266" y="771" type="line"/>
      <point x="107" y="771" type="line"/>
    </contour>
    <contour>
      <point x="1426" y="0" type="line"/>
      <point x="1610" y="0" type="line"/>
      <point x="1610" y="175" type="line"/>
      <point x="1736" y="175" type="line"/>
      <point x="1742" y="322" type="line"/>
      <point x="1610" y="322" type="line"/>
      <point x="1610" y="881" type="line"/>
      <point x="1416" y="881" type="line"/>
      <point x="1051" y="324" type="line"/>
      <point x="1051" y="175" type="line"/>
      <point x="1426" y="175" type="line"/>
    </contour>
    <contour>
      <point x="330" y="0" type="line"/>
      <point x="577" y="0" type="line"/>
      <point x="1593" y="1515" type="line"/>
      <point x="1355" y="1515" type="line"/>
    </contour>
    <contour>
      <point x="1227" y="322" type="line"/>
      <point x="1427" y="631" type="line"/>
      <point x="1427" y="322" type="line"/>
    </contour>
  </outline>
</glyph>
<glyph name="onehalf" format="1">
  <advance width="1935"/>
  <unicode hex="00BD"/>
  <outline>
    <contour>
      <point x="1302" y="0" type="line"/>
      <point x="1850" y="0" type="line"/>
      <point x="1856" y="161" type="line"/>
      <point x="1519" y="161" type="line"/>
      <point x="1696" y="332" type="line" smooth="yes"/>
      <point x="1799" y="432"/>
      <point x="1842" y="536"/>
      <point x="1842" y="628" type="curve" smooth="yes"/>
      <point x="1842" y="777"/>
      <point x="1728" y="888"/>
      <point x="1553" y="888" type="curve" smooth="yes"/>
      <point x="1388" y="888"/>
      <point x="1282" y="797"/>
      <point x="1215" y="718" type="curve"/>
      <point x="1328" y="597" type="line"/>
      <point x="1380" y="660"/>
      <point x="1455" y="710"/>
      <point x="1537" y="710" type="curve" smooth="yes"/>
      <point x="1598" y="710"/>
      <point x="1645" y="670"/>
      <point x="1645" y="613" type="curve" smooth="yes"/>
      <point x="1645" y="569"/>
      <point x="1614" y="514"/>
      <point x="1571" y="471" type="curve" smooth="yes"/>
      <point x="1261" y="155" type="line"/>
    </contour>
    <contour>
      <point x="107" y="602" type="line"/>
      <point x="602" y="602" type="line"/>
      <point x="602" y="771" type="line"/>
      <point x="466" y="771" type="line"/>
      <point x="466" y="1515" type="line"/>
      <point x="299" y="1515" type="line"/>
      <point x="275" y="1508"/>
      <point x="146" y="1425"/>
      <point x="88" y="1397" type="curve"/>
      <point x="88" y="1228" type="line"/>
      <point x="96" y="1229"/>
      <point x="231" y="1289"/>
      <point x="266" y="1303" type="curve"/>
      <point x="266" y="771" type="line"/>
      <point x="107" y="771" type="line"/>
    </contour>
    <contour>
      <point x="330" y="0" type="line"/>
      <point x="577" y="0" type="line"/>
      <point x="1593" y="1515" type="line"/>
      <point x="1355" y="1515" type="line"/>
    </contour>
  </outline>
</glyph>
<glyph name="threequarters" format="1">
  <advance width="1829"/>
  <unicode hex="00BE"/>
  <outline>
    <contour>
      <point x="337" y="619" type="curve" smooth="yes"/>
      <point x="529" y="619"/>
      <point x="698" y="709"/>
      <point x="698" y="896" type="curve" smooth="yes"/>
      <point x="698" y="991"/>
      <point x="645" y="1088"/>
      <point x="543" y="1105" type="curve"/>
      <point x="648" y="1123"/>
      <point x="678" y="1209"/>
      <point x="680" y="1288" type="curve" smooth="yes"/>
      <point x="680" y="1458"/>
      <point x="542" y="1520"/>
      <point x="385" y="1520" type="curve" smooth="yes"/>
      <point x="271" y="1520"/>
      <point x="149" y="1488"/>
      <point x="57" y="1435" type="curve"/>
      <point x="117" y="1303" type="line"/>
      <point x="191" y="1343"/>
      <point x="276" y="1364"/>
      <point x="344" y="1364" type="curve" smooth="yes"/>
      <point x="427" y="1364"/>
      <point x="492" y="1335"/>
      <point x="492" y="1264" type="curve" smooth="yes"/>
      <point x="492" y="1210"/>
      <point x="487" y="1177"/>
      <point x="345" y="1177" type="curve" smooth="yes"/>
      <point x="218" y="1177" type="line"/>
      <point x="218" y="1024" type="line"/>
      <point x="351" y="1026" type="line"/>
      <point x="470" y="1026"/>
      <point x="513" y="975"/>
      <point x="513" y="907" type="curve" smooth="yes"/>
      <point x="513" y="816"/>
      <point x="425" y="777"/>
      <point x="327" y="777" type="curve" smooth="yes"/>
      <point x="249" y="777"/>
      <point x="155" y="814"/>
      <point x="110" y="847" type="curve"/>
      <point x="44" y="689" type="line"/>
      <point x="133" y="642"/>
      <point x="238" y="619"/>
    </contour>
    <contour>
      <point x="1427" y="0" type="line"/>
      <point x="1612" y="0" type="line"/>
      <point x="1612" y="175" type="line"/>
      <point x="1738" y="175" type="line"/>
      <point x="1743" y="322" type="line"/>
      <point x="1611" y="322" type="line"/>
      <point x="1611" y="881" type="line"/>
      <point x="1417" y="881" type="line"/>
      <point x="1052" y="324" type="line"/>
      <point x="1052" y="175" type="line"/>
      <point x="1427" y="175" type="line"/>
    </contour>
    <contour>
      <point x="332" y="0" type="line"/>
      <point x="580" y="0" type="line"/>
      <point x="1595" y="1515" type="line"/>
      <point x="1357" y="1515" type="line"/>
    </contour>
    <contour>
      <point x="1229" y="322" type="line"/>
      <point x="1428" y="631" type="line"/>
      <point x="1428" y="322" type="line"/>
    </contour>
  </outline>
</glyph>
<glyph name="AE" format="1">
  <advance width="2154"/>
  <unicode hex="00C6"/>
  <outline>
    <contour>
      <point x="38" y="0" type="line"/>
      <point x="452" y="0" type="line"/>
      <point x="652" y="332" type="line"/>
      <point x="1010" y="332" type="line"/>
      <point x="1010" y="0" type="line"/>
      <point x="2007" y="0" type="line"/>
      <point x="2015" y="274" type="line"/>
      <point x="1329" y="274" type="line"/>
      <point x="1329" y="597" type="line"/>
      <point x="1957" y="597" type="line"/>
      <point x="1957" y="863" type="line"/>
      <point x="1329" y="863" type="line"/>
      <point x="1329" y="1192" type="line"/>
      <point x="1967" y="1192" type="line"/>
      <point x="1991" y="1456" type="line"/>
      <point x="962" y="1456" type="line"/>
    </contour>
    <contour>
      <point x="764" y="574" type="line"/>
      <point x="1010" y="989" type="line"/>
      <point x="1010" y="574" type="line"/>
    </contour>
  </outline>
</glyph>
<glyph name="Oslash" format="1">
  <advance width="1676"/>
  <unicode hex="00D8"/>
  <outline>
    <contour>
      <point x="836" y="1456" type="move" name="top"/>
    </contour>
    <contour>
      <point x="545" y="-258" type="line"/>
      <point x="642" y="-5" type="line"/>
      <point x="703" y="-17"/>
      <point x="768" y="-22"/>
      <point x="837" y="-22" type="curve" smooth="yes"/>
      <point x="1299" y="-22"/>
      <point x="1565" y="239"/>
      <point x="1565" y="726" type="curve" smooth="yes"/>
      <point x="1565" y="1065"/>
      <point x="1431" y="1302"/>
      <point x="1187" y="1409" type="curve"/>
      <point x="1290" y="1681" type="line"/>
      <point x="1134" y="1741" type="line"/>
      <point x="1027" y="1459" type="line"/>
      <point x="967" y="1471"/>
      <point x="904" y="1476"/>
      <point x="836" y="1476" type="curve" smooth="yes"/>
      <point x="376" y="1476"/>
      <point x="106" y="1203"/>
      <point x="106" y="723" type="curve" smooth="yes"/>
      <point x="106" y="381"/>
      <point x="244" y="149"/>
      <point x="488" y="44" type="curve"/>
      <point x="395" y="-203" type="line"/>
    </contour>
    <contour>
      <point x="625" y="401" type="line"/>
      <point x="588" y="478"/>
      <point x="564" y="584"/>
      <point x="564" y="722" type="curve" smooth="yes"/>
      <point x="564" y="1008"/>
      <point x="667" y="1174"/>
      <point x="837" y="1174" type="curve" smooth="yes"/>
      <point x="864" y="1174"/>
      <point x="890" y="1170"/>
      <point x="914" y="1161" type="curve"/>
    </contour>
    <contour>
      <point x="838" y="279" type="curve" smooth="yes"/>
      <point x="809" y="279"/>
      <point x="782" y="284"/>
      <point x="757" y="293" type="curve"/>
      <point x="1046" y="1044" type="line"/>
      <point x="1084" y="967"/>
      <point x="1106" y="858"/>
      <point x="1106" y="722" type="curve" smooth="yes"/>
      <point x="1106" y="432"/>
      <point x="1006" y="279"/>
    </contour>
  </outline>
</glyph>
<glyph name="Thorn" format="1">
  <advance width="1508"/>
  <unicode hex="00DE"/>
  <outline>
    <contour>
      <point x="165" y="0" type="line"/>
      <point x="591" y="0" type="line"/>
      <point x="591" y="289" type="line"/>
      <point x="718" y="289" type="line" smooth="yes"/>
      <point x="1270" y="289"/>
      <point x="1453" y="486"/>
      <point x="1453" y="829" type="curve" smooth="yes"/>
      <point x="1453" y="1148"/>
      <point x="1265" y="1298"/>
      <point x="661" y="1298" type="curve" smooth="yes"/>
      <point x="591" y="1298" type="line"/>
      <point x="591" y="1451" type="line"/>
      <point x="165" y="1451" type="line"/>
    </contour>
    <contour>
      <point x="591" y="558" type="line"/>
      <point x="591" y="1034" type="line"/>
      <point x="686" y="1034" type="line" smooth="yes"/>
      <point x="1009" y="1034"/>
      <point x="1045" y="934"/>
      <point x="1045" y="808" type="curve" smooth="yes"/>
      <point x="1045" y="678"/>
      <point x="977" y="558"/>
      <point x="654" y="558" type="curve" smooth="yes"/>
    </contour>
  </outline>
</glyph>
<glyph name="ae" format="1">
  <advance width="1777"/>
  <unicode hex="00E6"/>
  <outline>
    <contour>
      <point x="915" y="1082" type="move" name="top"/>
    </contour>
    <contour>
      <point x="1233" y="-20" type="curve" smooth="yes"/>
      <point x="1423" y="-20"/>
      <point x="1595" y="37"/>
      <point x="1678" y="122" type="curve"/>
      <point x="1619" y="331" type="line"/>
      <point x="1537" y="278"/>
      <point x="1418" y="231"/>
      <point x="1278" y="231" type="curve" smooth="yes"/>
      <point x="1177" y="231"/>
      <point x="1067" y="237"/>
      <point x="1042" y="412" type="curve"/>
      <point x="1106" y="412"/>
      <point x="1167" y="415"/>
      <point x="1222" y="419" type="curve" smooth="yes"/>
      <point x="1517" y="443"/>
      <point x="1693" y="524"/>
      <point x="1693" y="704" type="curve" smooth="yes"/>
      <point x="1693" y="868"/>
      <point x="1586" y="1102"/>
      <point x="1255" y="1102" type="curve" smooth="yes"/>
      <point x="1073" y="1102"/>
      <point x="971" y="1032"/>
      <point x="906" y="942" type="curve"/>
      <point x="873" y="1034"/>
      <point x="757" y="1100"/>
      <point x="597" y="1100" type="curve" smooth="yes"/>
      <point x="450" y="1100"/>
      <point x="276" y="1056"/>
      <point x="113" y="980" type="curve"/>
      <point x="180" y="746" type="line"/>
      <point x="302" y="788"/>
      <point x="425" y="825"/>
      <point x="520" y="825" type="curve" smooth="yes"/>
      <point x="611" y="825"/>
      <point x="699" y="789"/>
      <point x="699" y="695" type="curve" smooth="yes"/>
      <point x="699" y="631" type="line"/>
      <point x="695" y="632"/>
      <point x="557" y="631"/>
      <point x="555" y="631" type="curve" smooth="yes"/>
      <point x="360" y="631"/>
      <point x="70" y="575"/>
      <point x="70" y="307" type="curve" smooth="yes"/>
      <point x="70" y="86"/>
      <point x="208" y="-15"/>
      <point x="415" y="-15" type="curve"/>
      <point x="617" y="-15"/>
      <point x="754" y="41"/>
      <point x="838" y="123" type="curve"/>
      <point x="913" y="53"/>
      <point x="993" y="-20"/>
    </contour>
    <contour>
      <point x="535" y="193" type="curve" smooth="yes"/>
      <point x="479" y="193"/>
      <point x="425" y="232"/>
      <point x="425" y="312" type="curve" smooth="yes"/>
      <point x="425" y="436"/>
      <point x="546" y="458"/>
      <point x="650" y="458" type="curve" smooth="yes"/>
      <point x="652" y="458"/>
      <point x="692" y="458"/>
      <point x="703" y="459" type="curve" smooth="yes"/>
      <point x="703" y="422"/>
      <point x="730" y="308"/>
      <point x="751" y="262" type="curve" smooth="yes"/>
      <point x="723" y="236"/>
      <point x="630" y="193"/>
    </contour>
    <contour>
      <point x="1044" y="618" type="curve"/>
      <point x="1055" y="804"/>
      <point x="1182" y="862"/>
      <point x="1263" y="862" type="curve" smooth="yes"/>
      <point x="1412" y="862"/>
      <point x="1443" y="804"/>
      <point x="1443" y="744" type="curve" smooth="yes"/>
      <point x="1443" y="658"/>
      <point x="1366" y="625"/>
    </contour>
  </outline>
</glyph>
<glyph name="divide" format="1">
  <advance width="1299"/>
  <unicode hex="00F7"/>
  <outline>
    <contour>
      <point x="477" y="16" type="line"/>
      <point x="791" y="16" type="line"/>
      <point x="791" y="332" type="line"/>
      <point x="477" y="332" type="line"/>
    </contour>
    <contour>
      <point x="77" y="486" type="line"/>
      <point x="1191" y="486" type="line"/>
      <point x="1191" y="716" type="line"/>
      <point x="77" y="716" type="line"/>
    </contour>
    <contour>
      <point x="477" y="883" type="line"/>
      <point x="801" y="883" type="line"/>
      <point x="801" y="1184" type="line"/>
      <point x="477" y="1184" type="line"/>
    </contour>
  </outline>
</glyph>
<glyph name="thorn" format="1">
  <advance width="1194"/>
  <unicode hex="00FE"/>
  <outline>
    <contour>
      <point x="143" y="-412" type="line"/>
      <point x="396" y="-412" type="line"/>
      <point x="396" y="38" type="line"/>
      <point x="462" y="-6"/>
      <point x="550" y="-20"/>
      <point x="625" y="-20" type="curve" smooth="yes"/>
      <point x="913" y="-20"/>
      <point x="1078" y="203"/>
      <point x="1078" y="553" type="curve" smooth="yes"/>
      <point x="1078" y="856"/>
      <point x="971" y="1110"/>
      <point x="682" y="1110" type="curve" smooth="yes"/>
      <point x="596" y="1110"/>
      <point x="464" y="1111"/>
      <point x="393" y="899" type="curve"/>
      <point x="406" y="1110" type="line"/>
      <point x="406" y="1560" type="line"/>
      <point x="143" y="1540" type="line"/>
    </contour>
    <contour>
      <point x="604" y="177" type="curve" smooth="yes"/>
      <point x="574" y="177"/>
      <point x="474" y="151"/>
      <point x="395" y="208" type="curve"/>
      <point x="395" y="533" type="line" smooth="yes"/>
      <point x="397" y="768"/>
      <point x="419" y="910"/>
      <point x="636" y="910" type="curve" smooth="yes"/>
      <point x="765" y="910"/>
      <point x="807" y="780"/>
      <point x="807" y="548" type="curve" smooth="yes"/>
      <point x="807" y="291"/>
      <point x="740" y="177"/>
    </contour>
  </outline>
</glyph>
<glyph name="kgreenlandic" format="1">
  <advance width="1214"/>
  <unicode hex="0138"/>
  <outline>
    <contour>
      <point x="97" y="0" type="line"/>
      <point x="398" y="0" type="line"/>
      <point x="398" y="354" type="line"/>
      <point x="462" y="422" type="line"/>
      <point x="760" y="0" type="line"/>
      <point x="1110" y="0" type="line"/>
      <point x="1110" y="3" type="line"/>
      <point x="695" y="587" type="line"/>
      <point x="1089" y="1065" type="line"/>
      <point x="1089" y="1082" type="line"/>
      <point x="739" y="1082" type="line"/>
      <point x="392" y="646" type="line"/>
      <point x="398" y="860" type="line"/>
      <point x="398" y="1082" type="line"/>
      <point x="97" y="1082" type="line"/>
    </contour>
  </outline>
</glyph>
<glyph name="Eng" format="1">
  <advance width="1666"/>
  <unicode hex="014A"/>
  <outline>
    <contour>
      <point x="1501" y="1456" type="line"/>
      <point x="1102" y="1456" type="line"/>
      <point x="1102" y="961" type="line"/>
      <point x="1120" y="593" type="line"/>
      <point x="563" y="1456" type="line"/>
      <point x="164" y="1456" type="line"/>
      <point x="164" y="0" type="line"/>
      <point x="574" y="0" type="line"/>
      <point x="574" y="478" type="line"/>
      <point x="557" y="815" type="line"/>
      <point x="1102" y="-21" type="line"/>
      <point x="1102" y="-255"/>
      <point x="1071" y="-278"/>
      <point x="876" y="-278" type="curve"/>
      <point x="908" y="-522" type="line"/>
      <point x="1376" y="-501"/>
      <point x="1501" y="-369"/>
      <point x="1501" y="-69" type="curve" smooth="yes"/>
    </contour>
  </outline>
</glyph>
<glyph name="eng" format="1">
  <advance width="1257"/>
  <unicode hex="014B"/>
  <outline>
    <contour>
      <point x="489" y="930" type="curve"/>
      <point x="471" y="1082" type="line"/>
      <point x="123" y="1082" type="line"/>
      <point x="123" y="0" type="line"/>
      <point x="527" y="0" type="line"/>
      <point x="527" y="624" type="line" smooth="yes"/>
      <point x="527" y="800"/>
      <point x="591" y="849"/>
      <point x="653" y="849" type="curve" smooth="yes"/>
      <point x="726" y="849"/>
      <point x="768" y="810"/>
      <point x="768" y="617" type="curve" smooth="yes"/>
      <point x="768" y="-21" type="line" smooth="yes"/>
      <point x="768" y="-253"/>
      <point x="736" y="-278"/>
      <point x="548" y="-278" type="curve"/>
      <point x="579" y="-522" type="line"/>
      <point x="1044" y="-501"/>
      <point x="1173" y="-367"/>
      <point x="1173" y="-69" type="curve" smooth="yes"/>
      <point x="1173" y="676" type="line" smooth="yes"/>
      <point x="1173" y="937"/>
      <point x="1044" y="1101"/>
      <point x="802" y="1101" type="curve" smooth="yes"/>
      <point x="635" y="1101"/>
      <point x="542" y="1022"/>
    </contour>
  </outline>
</glyph>
<glyph name="circumflex" format="1">
  <advance width="944"/>
  <unicode hex="02C6"/>
  <outline>
    <contour>
      <point x="451" y="1082" type="move" name="_top"/>
    </contour>
    <contour>
      <point x="72" y="1319" type="line"/>
      <point x="372" y="1319" type="line"/>
      <point x="454" y="1522" type="line"/>
      <point x="536" y="1319" type="line"/>
      <point x="836" y="1319" type="line"/>
      <point x="620" y="1728" type="line"/>
      <point x="288" y="1728" type="line"/>
    </contour>
  </outline>
</glyph>
<glyph name="caron" format="1">
  <advance width="974"/>
  <unicode hex="02C7"/>
  <outline>
    <contour>
      <point x="456" y="1082" type="move" name="_top"/>
    </contour>
    <contour>
      <point x="290" y="1287" type="line"/>
      <point x="622" y="1287" type="line"/>
      <point x="839" y="1695" type="line"/>
      <point x="539" y="1695" type="line"/>
      <point x="457" y="1512" type="line"/>
      <point x="374" y="1695" type="line"/>
      <point x="74" y="1695" type="line"/>
    </contour>
  </outline>
</glyph>
<glyph name="ring" format="1">
  <advance width="843"/>
  <unicode hex="02DA"/>
  <outline>
    <contour>
      <point x="393" y="1084" type="move" name="_top"/>
    </contour>
    <contour>
      <point x="395" y="1314" type="curve" smooth="yes"/>
      <point x="330" y="1314"/>
      <point x="307" y="1363"/>
      <point x="307" y="1420" type="curve" smooth="yes"/>
      <point x="307" y="1473"/>
      <point x="336" y="1527"/>
      <point x="395" y="1527" type="curve" smooth="yes"/>
      <point x="457" y="1527"/>
      <point x="488" y="1473"/>
      <point x="488" y="1420" type="curve" smooth="yes"/>
      <point x="488" y="1364"/>
      <point x="457" y="1314"/>
    </contour>
    <contour>
      <point x="395" y="1190" type="curve" smooth="yes"/>
      <point x="545" y="1190"/>
      <point x="634" y="1302"/>
      <point x="634" y="1421" type="curve" smooth="yes"/>
      <point x="634" y="1539"/>
      <point x="548" y="1650"/>
      <point x="395" y="1650" type="curve" smooth="yes"/>
      <point x="244" y="1650"/>
      <point x="160" y="1542"/>
      <point x="160" y="1421" type="curve" smooth="yes"/>
      <point x="160" y="1302"/>
      <point x="245" y="1190"/>
    </contour>
  </outline>
</glyph>
<glyph name="tilde" format="1">
  <advance width="966"/>
  <unicode hex="02DC"/>
  <outline>
    <contour>
      <point x="505" y="1081" type="move" name="_top"/>
    </contour>
    <contour>
      <point x="141" y="1245" type="curve"/>
      <point x="296" y="1245" type="line"/>
      <point x="314" y="1319"/>
      <point x="337" y="1344"/>
      <point x="372" y="1344" type="curve" smooth="yes"/>
      <point x="438" y="1344"/>
      <point x="531" y="1245"/>
      <point x="645" y="1245" type="curve" smooth="yes"/>
      <point x="816" y="1245"/>
      <point x="858" y="1421"/>
      <point x="858" y="1529" type="curve"/>
      <point x="704" y="1529" type="line"/>
      <point x="688" y="1468"/>
      <point x="669" y="1449"/>
      <point x="642" y="1449" type="curve" smooth="yes"/>
      <point x="588" y="1449"/>
      <point x="507" y="1530"/>
      <point x="364" y="1530" type="curve" smooth="yes"/>
      <point x="184" y="1530"/>
      <point x="141" y="1363"/>
    </contour>
  </outline>
</glyph>
<glyph name="hungarumlaut" format="1">
  <advance width="1025"/>
  <unicode hex="02DD"/>
  <outline>
    <contour>
      <point x="416" y="1084" type="move" name="_top"/>
    </contour>
    <contour>
      <point x="113" y="1261" type="line"/>
      <point x="301" y="1261" type="line"/>
      <point x="574" y="1680" type="line"/>
      <point x="276" y="1680" type="line"/>
    </contour>
    <contour>
      <point x="516" y="1261" type="line"/>
      <point x="692" y="1261" type="line"/>
      <point x="985" y="1680" type="line"/>
      <point x="660" y="1680" type="line"/>
    </contour>
  </outline>
</glyph>
<glyph name="uni0307" format="1">
  <advance width="685"/>
  <unicode hex="0307"/>
  <outline>
    <contour>
      <point x="344" y="1263" type="curve" smooth="yes"/>
      <point x="471" y="1263"/>
      <point x="551" y="1338"/>
      <point x="551" y="1457" type="curve" smooth="yes"/>
      <point x="551" y="1570"/>
      <point x="471" y="1642"/>
      <point x="344" y="1642" type="curve" smooth="yes"/>
      <point x="218" y="1642"/>
      <point x="136" y="1570"/>
      <point x="136" y="1457" type="curve" smooth="yes"/>
      <point x="136" y="1338"/>
      <point x="218" y="1263"/>
    </contour>
  </outline>
</glyph>
<glyph name="dblgravecomb" format="1">
  <advance width="1161"/>
  <unicode hex="030F"/>
  <outline>
    <contour>
      <point x="603" y="1084" type="move" name="_top"/>
    </contour>
    <contour>
      <point x="328" y="1261" type="line"/>
      <point x="504" y="1261" type="line"/>
      <point x="360" y="1680" type="line"/>
      <point x="35" y="1680" type="line"/>
    </contour>
    <contour>
      <point x="718" y="1261" type="line"/>
      <point x="907" y="1261" type="line"/>
      <point x="744" y="1680" type="line"/>
      <point x="446" y="1680" type="line"/>
    </contour>
  </outline>
</glyph>
<glyph name="commaturnedabovecomb" format="1">
  <advance width="600"/>
  <unicode hex="0312"/>
  <outline>
    <contour>
      <point x="287" y="1084" type="move" name="_top"/>
    </contour>
    <contour>
      <point x="124" y="1271" type="line"/>
      <point x="446" y="1271" type="line"/>
      <point x="446" y="1263"/>
      <point x="518" y="1792"/>
      <point x="518" y="1792" type="curve"/>
      <point x="281" y="1792" type="line"/>
      <point x="281" y="1792"/>
      <point x="135" y="1312"/>
      <point x="135" y="1287" type="curve"/>
    </contour>
  </outline>
</glyph>
<glyph name="quoteleft" format="1">
  <advance width="532"/>
  <unicode hex="2018"/>
  <outline>
    <contour>
      <point x="103" y="1036" type="line"/>
      <point x="430" y="1036" type="line"/>
      <point x="463" y="1567" type="line"/>
      <point x="231" y="1567" type="line"/>
    </contour>
  </outline>
</glyph>
<glyph name="quotedblleft" format="1">
  <advance width="992"/>
  <unicode hex="201C"/>
  <outline>
    <contour>
      <point x="103" y="1036" type="line"/>
      <point x="430" y="1036" type="line"/>
      <point x="463" y="1567" type="line"/>
      <point x="231" y="1567" type="line"/>
    </contour>
    <contour>
      <point x="548" y="1036" type="line"/>
      <point x="873" y="1036" type="line"/>
      <point x="907" y="1567" type="line"/>
      <point x="675" y="1567" type="line"/>
    </contour>
  </outline>
</glyph>
<glyph name="quotedblbase" format="1">
  <advance width="1013"/>
  <unicode hex="201E"/>
  <outline>
    <contour>
      <point x="103" y="-397" type="line"/>
      <point x="337" y="-397" type="line"/>
      <point x="465" y="136" type="line"/>
      <point x="136" y="136" type="line"/>
    </contour>
    <contour>
      <point x="543" y="-397" type="line"/>
      <point x="777" y="-397" type="line"/>
      <point x="903" y="136" type="line"/>
      <point x="575" y="136" type="line"/>
    </contour>
  </outline>
</glyph>
<glyph name="dagger" format="1">
  <advance width="1185"/>
  <unicode hex="2020"/>
  <outline>
    <contour>
      <point x="403" y="-160" type="line"/>
      <point x="774" y="-160" type="line"/>
      <point x="774" y="846" type="line"/>
      <point x="1110" y="846" type="line"/>
      <point x="1110" y="1078" type="line"/>
      <point x="784" y="1078" type="line"/>
      <point x="784" y="1452" type="line"/>
      <point x="403" y="1452" type="line"/>
      <point x="403" y="1078" type="line"/>
      <point x="92" y="1078" type="line"/>
      <point x="92" y="846" type="line"/>
      <point x="403" y="846" type="line"/>
    </contour>
  </outline>
</glyph>
<glyph name="daggerdbl" format="1">
  <advance width="1157"/>
  <unicode hex="2021"/>
  <outline>
    <contour>
      <point x="403" y="-211" type="line"/>
      <point x="774" y="-211" type="line"/>
      <point x="774" y="342" type="line"/>
      <point x="1113" y="342" type="line"/>
      <point x="1113" y="575" type="line"/>
      <point x="784" y="575" type="line"/>
      <point x="784" y="848" type="line"/>
      <point x="1113" y="848" type="line"/>
      <point x="1113" y="1081" type="line"/>
      <point x="785" y="1081" type="line"/>
      <point x="785" y="1454" type="line"/>
      <point x="403" y="1454" type="line"/>
      <point x="403" y="1081" type="line"/>
      <point x="92" y="1081" type="line"/>
      <point x="92" y="848" type="line"/>
      <point x="403" y="848" type="line"/>
      <point x="403" y="575" type="line"/>
      <point x="92" y="575" type="line"/>
      <point x="92" y="342" type="line"/>
      <point x="403" y="342" type="line"/>
    </contour>
  </outline>
</glyph>
<glyph name="perthousand" format="1">
  <advance width="3439"/>
  <unicode hex="2030"/>
  <outline>
    <contour>
      <point x="2943" y="172" type="curve" smooth="yes"/>
      <point x="2837" y="172"/>
      <point x="2742" y="265"/>
      <point x="2742" y="382" type="curve" smooth="yes"/>
      <point x="2742" y="498"/>
      <point x="2837" y="589"/>
      <point x="2943" y="589" type="curve" smooth="yes"/>
      <point x="3046" y="589"/>
      <point x="3137" y="502"/>
      <point x="3137" y="382" type="curve" smooth="yes"/>
      <point x="3137" y="266"/>
      <point x="3047" y="172"/>
    </contour>
    <contour>
      <point x="2938" y="-46" type="curve" smooth="yes"/>
      <point x="3192" y="-46"/>
      <point x="3388" y="140"/>
      <point x="3388" y="379" type="curve" smooth="yes"/>
      <point x="3388" y="618"/>
      <point x="3195" y="794"/>
      <point x="2938" y="794" type="curve" smooth="yes"/>
      <point x="2684" y="794"/>
      <point x="2488" y="612"/>
      <point x="2488" y="379" type="curve" smooth="yes"/>
      <point x="2488" y="140"/>
      <point x="2680" y="-46"/>
    </contour>
    <component base="percent" xOffset="57"/>
  </outline>
</glyph>
<glyph name="guilsinglleft" format="1">
  <advance width="890"/>
  <unicode hex="2039"/>
  <outline>
    <contour>
      <point x="403" y="103" type="line"/>
      <point x="769" y="103" type="line"/>
      <point x="516" y="560" type="line"/>
      <point x="774" y="1039" type="line"/>
      <point x="412" y="1039" type="line"/>
      <point x="134" y="564" type="line"/>
    </contour>
  </outline>
</glyph>
<glyph name="fraction" format="1">
  <advance width="1213"/>
  <unicode hex="2044"/>
  <outline>
    <contour>
      <point x="25" y="0" type="line"/>
      <point x="259" y="0" type="line"/>
      <point x="1382" y="1599" type="line"/>
      <point x="1165" y="1599" type="line"/>
    </contour>
  </outline>
</glyph>
<glyph name="uni2113" format="1">
  <advance width="1397"/>
  <unicode hex="2113"/>
  <outline>
    <contour>
      <point x="667" y="-22" type="curve" smooth="yes"/>
      <point x="921" y="-22"/>
      <point x="1083" y="98"/>
      <point x="1083" y="98" type="curve"/>
      <point x="1052" y="322" type="line"/>
      <point x="949" y="285"/>
      <point x="854" y="254"/>
      <point x="775" y="254" type="curve" smooth="yes"/>
      <point x="713" y="254"/>
      <point x="671" y="278"/>
      <point x="671" y="349" type="curve" smooth="yes"/>
      <point x="671" y="368"/>
      <point x="674" y="391"/>
      <point x="680" y="417" type="curve" smooth="yes"/>
      <point x="743" y="670" type="line"/>
      <point x="1026" y="865" type="line" smooth="yes"/>
      <point x="1284" y="1043"/>
      <point x="1389" y="1122"/>
      <point x="1389" y="1332" type="curve" smooth="yes"/>
      <point x="1389" y="1575"/>
      <point x="1185" y="1713"/>
      <point x="976" y="1713" type="curve" smooth="yes"/>
      <point x="797" y="1713"/>
      <point x="615" y="1609"/>
      <point x="557" y="1396" type="curve" smooth="yes"/>
      <point x="353" y="644" type="line"/>
      <point x="63" y="437" type="line"/>
      <point x="125" y="319" type="line"/>
      <point x="299" y="440" type="line"/>
      <point x="291" y="400"/>
      <point x="287" y="362"/>
      <point x="287" y="325" type="curve" smooth="yes"/>
      <point x="287" y="43"/>
      <point x="496" y="-22"/>
    </contour>
    <contour>
      <point x="779" y="865" type="line"/>
      <point x="902" y="1319" type="line" smooth="yes"/>
      <point x="933" y="1433"/>
      <point x="998" y="1485"/>
      <point x="1063" y="1485" type="curve" smooth="yes"/>
      <point x="1132" y="1485"/>
      <point x="1193" y="1428"/>
      <point x="1193" y="1335" type="curve" smooth="yes"/>
      <point x="1193" y="1210"/>
      <point x="1110" y="1101"/>
      <point x="937" y="978" type="curve" smooth="yes"/>
    </contour>
  </outline>
</glyph>
<glyph name="uni2126" format="1">
  <advance width="1757"/>
  <unicode hex="2126"/>
  <outline>
    <contour>
      <point x="103" y="0" type="line"/>
      <point x="793" y="0" type="line"/>
      <point x="793" y="240" type="line"/>
      <point x="598" y="354"/>
      <point x="499" y="559"/>
      <point x="499" y="749" type="curve" smooth="yes"/>
      <point x="499" y="966"/>
      <point x="627" y="1156"/>
      <point x="879" y="1156" type="curve" smooth="yes"/>
      <point x="1129" y="1156"/>
      <point x="1259" y="965"/>
      <point x="1259" y="749" type="curve" smooth="yes"/>
      <point x="1259" y="559"/>
      <point x="1159" y="355"/>
      <point x="965" y="240" type="curve"/>
      <point x="965" y="0" type="line"/>
      <point x="1654" y="0" type="line"/>
      <point x="1654" y="240" type="line"/>
      <point x="1190" y="240" type="line"/>
      <point x="1204" y="120" type="line"/>
      <point x="1501" y="260"/>
      <point x="1648" y="528"/>
      <point x="1648" y="794" type="curve" smooth="yes"/>
      <point x="1648" y="1149"/>
      <point x="1384" y="1491"/>
      <point x="879" y="1491" type="curve" smooth="yes"/>
      <point x="375" y="1491"/>
      <point x="108" y="1148"/>
      <point x="108" y="792" type="curve" smooth="yes"/>
      <point x="108" y="527"/>
      <point x="256" y="260"/>
      <point x="553" y="120" type="curve"/>
      <point x="567" y="240" type="line"/>
      <point x="103" y="240" type="line"/>
    </contour>
  </outline>
</glyph>
<glyph name="estimated" format="1">
  <advance width="1277"/>
  <unicode hex="212E"/>
  <outline>
    <contour>
      <point x="697" y="369" type="curve" smooth="yes"/>
      <point x="899" y="369"/>
      <point x="1030" y="454"/>
      <point x="1128" y="572" type="curve"/>
      <point x="1078" y="621" type="line"/>
      <point x="982" y="518"/>
      <point x="874" y="442"/>
      <point x="697" y="442" type="curve" smooth="yes"/>
      <point x="475" y="442"/>
      <point x="414" y="625"/>
      <point x="413" y="894" type="curve"/>
      <point x="1136" y="894" type="line"/>
      <point x="1136" y="1230"/>
      <point x="992" y="1452"/>
      <point x="681" y="1452" type="curve" smooth="yes"/>
      <point x="368" y="1452"/>
      <point x="145" y="1224"/>
      <point x="145" y="914" type="curve" smooth="yes"/>
      <point x="145" y="603"/>
      <point x="329" y="369"/>
    </contour>
    <contour>
      <point x="412" y="974" type="line"/>
      <point x="430" y="1226"/>
      <point x="520" y="1392"/>
      <point x="687" y="1392" type="curve" smooth="yes"/>
      <point x="891" y="1392"/>
      <point x="970" y="1202"/>
      <point x="970" y="974" type="curve"/>
    </contour>
  </outline>
</glyph>
<glyph name="partialdiff" format="1">
  <advance width="1434"/>
  <unicode hex="2202"/>
  <outline>
    <contour>
      <point x="580" y="-21" type="curve" smooth="yes"/>
      <point x="977" y="-21"/>
      <point x="1220" y="401"/>
      <point x="1220" y="937" type="curve" smooth="yes"/>
      <point x="1220" y="1310"/>
      <point x="962" y="1561"/>
      <point x="645" y="1561" type="curve" smooth="yes"/>
      <point x="528" y="1561"/>
      <point x="404" y="1526"/>
      <point x="281" y="1452" type="curve"/>
      <point x="346" y="1286" type="line"/>
      <point x="433" y="1341"/>
      <point x="519" y="1367"/>
      <point x="597" y="1367" type="curve" smooth="yes"/>
      <point x="782" y="1367"/>
      <point x="921" y="1225"/>
      <point x="921" y="993" type="curve" smooth="yes"/>
      <point x="921" y="992"/>
      <point x="921" y="982"/>
      <point x="921" y="982" type="curve"/>
      <point x="465" y="947"/>
      <point x="210" y="599"/>
      <point x="210" y="323" type="curve" smooth="yes"/>
      <point x="210" y="134"/>
      <point x="328" y="-21"/>
    </contour>
    <contour>
      <point x="594" y="149" type="curve" smooth="yes"/>
      <point x="553" y="149"/>
      <point x="532" y="198"/>
      <point x="532" y="268" type="curve" smooth="yes"/>
      <point x="532" y="445"/>
      <point x="661" y="764"/>
      <point x="911" y="822" type="curve"/>
      <point x="886" y="542"/>
      <point x="774" y="149"/>
    </contour>
  </outline>
</glyph>
<glyph name="uni2206" format="1">
  <advance width="1344"/>
  <unicode hex="2206"/>
  <outline>
    <contour>
      <point x="74" y="0" type="line"/>
      <point x="1279" y="0" type="line"/>
      <point x="1279" y="147" type="line"/>
      <point x="773" y="1602" type="line"/>
      <point x="580" y="1602" type="line"/>
      <point x="74" y="147" type="line"/>
    </contour>
    <contour>
      <point x="280" y="237" type="line"/>
      <point x="590" y="1105" type="line"/>
      <point x="626" y="1230" type="line"/>
      <point x="660" y="1105" type="line"/>
      <point x="966" y="237" type="line"/>
    </contour>
  </outline>
</glyph>
<glyph name="summation" format="1">
  <advance width="1233"/>
  <unicode hex="2211"/>
  <outline>
    <contour>
      <point x="67" y="-292" type="line"/>
      <point x="1163" y="-292" type="line"/>
      <point x="1163" y="5" type="line"/>
      <point x="466" y="5" type="line"/>
      <point x="963" y="588" type="line"/>
      <point x="543" y="1163" type="line"/>
      <point x="1133" y="1163" type="line"/>
      <point x="1133" y="1456" type="line"/>
      <point x="69" y="1456" type="line"/>
      <point x="69" y="1200" type="line"/>
      <point x="561" y="565" type="line"/>
      <point x="67" y="-41" type="line"/>
    </contour>
  </outline>
</glyph>
<glyph name="radical" format="1">
  <advance width="1434"/>
  <unicode hex="221A"/>
  <outline>
    <contour>
      <point x="532" y="-169" type="line"/>
      <point x="865" y="-169" type="line"/>
      <point x="1403" y="1541" type="line"/>
      <point x="1065" y="1541"/>
      <point x="1063" y="1545"/>
      <point x="1063" y="1545" type="curve"/>
      <point x="1058" y="1541"/>
      <point x="646" y="226"/>
      <point x="636" y="206" type="curve"/>
      <point x="632" y="218"/>
      <point x="476" y="680"/>
      <point x="374" y="981" type="curve"/>
      <point x="7" y="867" type="line"/>
      <point x="40" y="741" type="line"/>
      <point x="180" y="784" type="line"/>
    </contour>
  </outline>
</glyph>
<glyph name="approxequal" format="1">
  <advance width="1336"/>
  <unicode hex="2248"/>
  <outline>
    <contour>
      <point x="893" y="274" type="curve" smooth="yes"/>
      <point x="1105" y="274"/>
      <point x="1167" y="402"/>
      <point x="1203" y="582" type="curve"/>
      <point x="1041" y="648" type="line"/>
      <point x="994" y="515"/>
      <point x="938" y="491"/>
      <point x="883" y="491" type="curve" smooth="yes"/>
      <point x="828" y="491"/>
      <point x="769" y="518"/>
      <point x="701" y="559" type="curve" smooth="yes"/>
      <point x="588" y="625"/>
      <point x="518" y="661"/>
      <point x="415" y="661" type="curve" smooth="yes"/>
      <point x="226" y="661"/>
      <point x="124" y="540"/>
      <point x="95" y="347" type="curve"/>
      <point x="281" y="281" type="line"/>
      <point x="296" y="390"/>
      <point x="329" y="445"/>
      <point x="411" y="445" type="curve" smooth="yes"/>
      <point x="459" y="445"/>
      <point x="500" y="419"/>
      <point x="525" y="404" type="curve" smooth="yes"/>
      <point x="688" y="313"/>
      <point x="778" y="274"/>
    </contour>
    <contour>
      <point x="893" y="721" type="curve" smooth="yes"/>
      <point x="1105" y="721"/>
      <point x="1167" y="849"/>
      <point x="1203" y="1028" type="curve"/>
      <point x="1041" y="1094" type="line"/>
      <point x="994" y="961"/>
      <point x="938" y="937"/>
      <point x="883" y="937" type="curve" smooth="yes"/>
      <point x="828" y="937"/>
      <point x="769" y="965"/>
      <point x="701" y="1006" type="curve" smooth="yes"/>
      <point x="588" y="1073"/>
      <point x="518" y="1107"/>
      <point x="415" y="1107" type="curve" smooth="yes"/>
      <point x="226" y="1107"/>
      <point x="124" y="987"/>
      <point x="95" y="794" type="curve"/>
      <point x="281" y="729" type="line"/>
      <point x="296" y="836"/>
      <point x="329" y="893"/>
      <point x="409" y="893" type="curve" smooth="yes"/>
      <point x="458" y="893"/>
      <point x="500" y="866"/>
      <point x="525" y="851" type="curve" smooth="yes"/>
      <point x="688" y="759"/>
      <point x="778" y="721"/>
    </contour>
  </outline>
</glyph>
<glyph name="notequal" format="1">
  <advance width="1214"/>
  <unicode hex="2260"/>
  <outline>
    <contour>
      <point x="201" y="72" type="line"/>
      <point x="408" y="39" type="line"/>
      <point x="540" y="306" type="line"/>
      <point x="1103" y="306" type="line"/>
      <point x="1087" y="517" type="line"/>
      <point x="638" y="517" type="line"/>
      <point x="728" y="698" type="line"/>
      <point x="1103" y="698" type="line"/>
      <point x="1086" y="926" type="line"/>
      <point x="826" y="926" type="line"/>
      <point x="940" y="1144" type="line"/>
      <point x="732" y="1174" type="line"/>
      <point x="601" y="926" type="line"/>
      <point x="53" y="926" type="line"/>
      <point x="69" y="700" type="line"/>
      <point x="507" y="700" type="line"/>
      <point x="418" y="518" type="line"/>
      <point x="56" y="518" type="line"/>
      <point x="69" y="306" type="line"/>
      <point x="321" y="306" type="line"/>
    </contour>
  </outline>
</glyph>
<glyph name="lozenge" format="1">
  <advance width="1230"/>
  <unicode hex="25CA"/>
  <outline>
    <contour>
      <point x="535" y="-45" type="line"/>
      <point x="679" y="-45" type="line"/>
      <point x="1138" y="729" type="line"/>
      <point x="690" y="1508" type="line"/>
      <point x="542" y="1508" type="line"/>
      <point x="89" y="728" type="line"/>
    </contour>
    <contour>
      <point x="598" y="164" type="curve"/>
      <point x="348" y="636"/>
      <point x="530" y="257"/>
      <point x="284" y="730" type="curve"/>
      <point x="537" y="1205"/>
      <point x="361" y="829"/>
      <point x="616" y="1301" type="curve"/>
      <point x="859" y="824"/>
      <point x="698" y="1203"/>
      <point x="943" y="732" type="curve"/>
      <point x="690" y="257"/>
      <point x="853" y="639"/>
    </contour>
  </outline>
</glyph>
<glyph name="middot" format="1">
  <advance width="656"/>
  <outline>
    <contour>
      <point x="302" y="688" type="move" name="_mid"/>
    </contour>
    <component base="period" xOffset="-62" yOffset="506"/>
  </outline>
</glyph>
<glyph name="slashbar" format="1">
  <advance width="181"/>
  <outline>
    <contour>
      <point x="396" y="646" type="move" name="_mid"/>
    </contour>
    <contour>
      <point x="129" y="436" type="line"/>
      <point x="828" y="638" type="line"/>
      <point x="828" y="910" type="line"/>
      <point x="129" y="706" type="line"/>
    </contour>
  </outline>
</glyph>
